;TYPE=PLATED
;Layer: PTH_Through_Via
;EasyEDA Pro v2.2.44.9, 2025-11-29 07:34:24
;Gerber Generator version 0.3
M48
METRIC,LZ,0000.00000
;Hole size 1 = 0.30500 METRIC
T01C0.30500
%
G05
G90
T01
X-1.85791Y6.34218
X-1.95503Y8.25661
X-1.06082Y12.08951
X0.62574Y4.74141
X0.84365Y17.85021
X2.55222Y6.69008
X4.52066Y2.95548
X5.86627Y2.37614
X3.72022Y6.68835
X7.01656Y4.68428
X7.31246Y3.30599
X7.48462Y1.37818
X8.39464Y9.98494
X8.53263Y2.62117
X9.38962Y0.74725
X9.29463Y2.47343
X14.03537Y1.69856
X14.72505Y5.0185
X17.58469Y4.9244
X17.65037Y7.12237
X18.19522Y5.48922
X20.18514Y10.50137
X4.30422Y7.27235
X27.32708Y10.0341
X19.38426Y11.08222
X27.9073Y12.22886
X18.56389Y7.22191
X28.04288Y4.97037
X27.30367Y2.92582
X27.48046Y-3.41989
X18.26337Y9.62382
X-0.07291Y7.80597
X2.93538Y5.15098
X-7.16245Y10.9973
X-0.96821Y0.9707
X-1.58993Y-1.03695
X-4.66295Y-1.12456
X-0.93899Y-3.71282
X3.76251Y17.84096
X1.75248Y17.85021
X19.40288Y2.39121
X-1.3539Y3.90505
X-0.37347Y17.85021
X-7.07289Y5.83735
X-3.60991Y6.97662
X10.36107Y2.14306
X0.29064Y-0.76164
X10.90975Y3.95416
X-5.11037Y12.74927
X24.1832Y2.76192
X5.83571Y7.15355
X5.86627Y6.39155
X7.5011Y7.04006
X19.82253Y6.21049
X27.6495Y1.07358
X21.2096Y-5.21381
X1.7446Y-5.33946
X23.79585Y-5.62715
X23.79585Y-4.92715
X23.79585Y-4.22715
X23.79585Y9.77288
X23.79585Y16.77289
X23.78087Y17.66754
X24.79585Y-5.62715
X24.79585Y-4.92715
X24.79585Y-4.22715
X24.79585Y9.77288
X24.79585Y16.77289
X24.84077Y17.66005
X21.603Y-5.87246
X21.58224Y-4.44118
X8.15699Y-5.77514
X8.14886Y-4.82674
X6.56875Y-5.79385
X6.56062Y-4.84545
X3.73774Y-5.78262
X3.72962Y-4.83422
X-0.86769Y-5.38087
X-0.16769Y-5.38087
X0.53231Y-5.38087
X27.90211Y13.53304
X27.90211Y14.23304
X27.90211Y14.93304
X27.90211Y15.63304
X28.60211Y11.43304
X28.60211Y15.63304
X29.30212Y11.43304
X29.30212Y15.63304
X31.40212Y11.43304
X31.40212Y15.63304
X32.10212Y11.43304
X32.10212Y14.93304
X32.10212Y15.63304
X27.88044Y-1.81179
X27.88044Y-1.11179
X27.88044Y-0.41179
X27.88044Y0.28821
X27.88044Y1.68822
X28.58629Y-2.50594
X28.58044Y0.98821
X28.58044Y1.68822
X29.28044Y1.68822
X29.98044Y1.68822
X30.68044Y1.68822
X31.38045Y1.68822
X32.08045Y-2.51179
X32.08045Y0.98821
X32.08045Y1.68822
X27.90196Y5.78813
X27.90196Y6.48813
X27.90196Y7.18813
X27.90196Y7.88814
X27.90196Y8.58814
X28.60196Y4.38813
X28.60196Y8.58814
X29.30196Y8.58814
X30.70196Y8.58814
X31.40196Y8.58814
X32.10197Y4.38813
X32.10197Y7.88814
X32.10197Y8.58814
X11.12531Y15.72525
X11.15252Y16.62995
X11.15485Y17.49892
X17.64322Y17.85021
X10.20153Y15.72074
X10.22423Y16.62995
X10.20769Y17.50256
X16.80453Y17.8497
X-1.53117Y1.83545
X20.53422Y-0.16489
X18.64824Y1.75751
X19.50617Y0.63839
X20.40634Y-2.70463
X21.1015Y12.75737
X-5.75862Y-5.0592
X-5.73141Y-4.1545
X-6.51834Y-2.64299
X-6.5568Y-3.69408
X-6.58401Y-4.59878
X-4.79554Y-5.10696
X-3.72719Y-5.12085
X-4.26622Y-3.20962
X-4.09673Y-2.23715
X-5.25544Y-2.25409
X-4.6995Y1.42866
X-5.49271Y0.90496
X0.84164Y10.60626
X2.55222Y12.51573
X4.10792Y10.87619
X2.55222Y10.60626
X2.55222Y9.22956
X3.31061Y11.3025
X2.55222Y11.38759
X3.40568Y10.60626
X-7.13555Y2.76161
X2.92739Y16.63443
X0.26517Y15.40909
X0.26517Y16.20302
X0.26517Y14.57845
X2.47602Y15.38637
X-0.08623Y10.75519
X-1.01267Y10.77443
X2.49552Y0.76504
X3.13016Y0.7961
X21.13017Y-1.2039
X12.17425Y12.77581
X27.86937Y-5.7765
X-4.88801Y15.10082
X-2.73003Y16.09465
X12.41456Y8.9435
X12.98506Y11.98613
X21.46982Y9.89292
X21.23883Y8.85735
X21.23883Y7.85735
X21.23883Y6.85735
X21.20701Y5.64287
X21.23229Y0.28202
X-6.83463Y12.58957
X3.04116Y-1.91873
X3.03946Y-2.78478
X4.27255Y-1.91873
X4.27584Y-2.8035
X0.22902Y-2.30293
X1.04655Y-2.31791
X23.8355Y15.67682
X24.83219Y15.64948
X23.84796Y14.74285
X24.84796Y14.74285
X23.84796Y13.74285
X24.84796Y13.74285
X23.84796Y12.81286
X24.84796Y12.81286
X24.86245Y11.64485
X23.84112Y11.62533
X23.80017Y8.63367
X24.79686Y8.60633
X23.81264Y7.6997
X24.81264Y7.6997
X23.81264Y6.6997
X24.81264Y6.6997
X23.81264Y5.6997
X24.81264Y5.6997
X24.83087Y4.77368
X23.83166Y4.76526
X23.76087Y1.75546
X24.64143Y1.68727
X23.77333Y0.82149
X24.77333Y0.82149
X23.77333Y-0.17851
X24.77333Y-0.17851
X23.77333Y-1.17851
X24.77333Y-1.17851
X24.78782Y-2.19611
X23.77398Y-2.2062
X5.86905Y15.95584
X7.04927Y15.94576
X8.17616Y15.93589
X5.92628Y15.08646
X7.08967Y15.08646
X8.09756Y15.08646
X5.90199Y13.33335
X9.08567Y15.91636
X9.03585Y15.08646
X17.16627Y2.80918
X19.37571Y1.41081
X21.2465Y-0.49825
X10.27286Y-4.84746
X10.28099Y-5.79586
X11.86924Y-5.77715
X11.86111Y-4.82875
X14.00862Y-4.80254
X14.01675Y-5.75095
X15.60499Y-5.73223
X15.59687Y-4.78383
X17.5123Y-4.81752
X17.52043Y-5.76592
X19.10867Y-5.7472
X19.10054Y-4.7988
X6.71428Y-1.80187
X6.71258Y-2.66792
X7.94566Y-1.80187
X7.94896Y-2.68663
X10.40886Y-1.79064
X10.40716Y-2.65669
X11.64025Y-1.79064
X11.64354Y-2.6754
X14.03606Y-1.76818
X14.03436Y-2.63423
X15.26745Y-1.76818
X15.27074Y-2.65294
X17.59589Y-1.68957
X17.59419Y-2.55562
X18.82728Y-1.68957
X18.83057Y-2.57433
M30