G04 Layer: BottomSolderMaskLayer*
G04 EasyEDA Pro v2.2.44.9, 2025-11-29 07:34:24*
G04 Gerber Generator version 0.3*
G04 Scale: 100 percent, Rotated: No, Reflected: No*
G04 Dimensions in millimeters*
G04 Leading zeros omitted, absolute positions, 4 integers and 5 decimals*
G04 Generated by one-click*
%FSLAX45Y45*%
%MOMM*%
%AMRoundRect*1,1,$1,$2,$3*1,1,$1,$4,$5*1,1,$1,0-$2,0-$3*1,1,$1,0-$4,0-$5*20,1,$1,$2,$3,$4,$5,0*20,1,$1,$4,$5,0-$2,0-$3,0*20,1,$1,0-$2,0-$3,0-$4,0-$5,0*20,1,$1,0-$4,0-$5,$2,$3,0*4,1,4,$2,$3,$4,$5,0-$2,0-$3,0-$4,0-$5,$2,$3,0*%
%ADD10RoundRect,0.075X-0.5625X-0.1125X-0.5625X0.1125*%
%ADD11RoundRect,0.075X-0.4125X-0.1125X-0.4125X0.1125*%
%ADD12RoundRect,0.07778X-0.13612X-0.41111X-0.13612X0.41111*%
%ADD13RoundRect,0.07778X-0.13612X-0.36111X-0.13612X0.36111*%
%ADD14RoundRect,0.07778X-0.13612X-0.56111X-0.13612X0.56111*%
%ADD15RoundRect,0.075X-0.2125X0.1125X0.2125X0.1125*%
%ADD16RoundRect,0.0914X-0.28977X0.27695X0.28977X0.27695*%
%ADD17RoundRect,0.08771X-0.28977X0.27695X0.28977X0.27695*%
%ADD18RoundRect,0.09131X-0.40514X0.45514X0.40514X0.45514*%
%ADD19RoundRect,0.09881X-1.75133X2.60139X1.75133X2.60139*%
%ADD20RoundRect,0.08771X-0.27695X-0.28977X-0.27695X0.28977*%
%ADD21C,4.0*%
%ADD22RoundRect,0.09598X-1.35281X-0.82031X-1.35281X0.82031*%
%ADD23RoundRect,0.09778X-1.25191X1.25191X1.25191X1.25191*%
%ADD24C,2.1016*%
%ADD25RoundRect,0.09691X-1.00234X-1.00234X-1.00234X1.00234*%
%ADD26RoundRect,0.09336X-0.52912X-1.23662X-0.52912X1.23662*%
%ADD27RoundRect,0.09773X-1.77193X-1.23443X-1.77193X1.23443*%
%ADD28RoundRect,0.49939X-1.8011X1.8011X1.8011X1.8011*%
%ADD29RoundRect,0.09131X-0.45514X-0.40514X-0.45514X0.40514*%
G75*


G04 Pad Start*
G54D10*
G01X1274734Y681104D03*
G01X1274734Y621110D03*
G54D11*
G01X1289618Y741099D03*
G54D10*
G01X1274734Y561115D03*
G54D11*
G01X1289618Y501120D03*
G54D12*
G01X1205824Y481105D03*
G54D13*
G01X1205824Y766118D03*
G54D14*
G01X1140825Y746103D03*
G01X1140825Y496116D03*
G01X1075827Y746103D03*
G01X1075827Y496116D03*
G54D15*
G01X1108339Y591112D03*
G01X1108339Y651107D03*
G36*
G01X993326Y756099D02*
G01X993326Y801109D01*
G02X998326Y806109I5000J0D01*
G01X1023332Y806109D01*
G02X1028332Y801109I0J-5000D01*
G01X1028332Y691099D01*
G02X1023333Y686099I-5000J0D01*
G01X853330Y686097D01*
G01X853328Y686097D01*
G01X828332Y686107D01*
G02X823334Y691107I2J5000D01*
G01X823334Y801109D01*
G02X828334Y806109I5000J0D01*
G01X853335Y806109D01*
G02X858335Y801109I0J-5000D01*
G01X858335Y756099D01*
G01X908328Y756099D01*
G01X908328Y801109D01*
G02X913328Y806109I5000J0D01*
G01X938331Y806109D01*
G02X943331Y801109I0J-5000D01*
G01X943331Y756099D01*
G01X993326Y756099D01*
G37*
G36*
G01X858338Y486117D02*
G01X858338Y441107D01*
G02X853338Y436107I-5000J0D01*
G01X828334Y436107D01*
G02X823334Y441107I0J5000D01*
G01X823332Y551117D01*
G02X826096Y555589I5000J0D01*
G01X826323Y555703D01*
G01X828562Y556231D01*
G01X998337Y556120D01*
G01X1023332Y556107D01*
G02X1028330Y551107I-3J-5000D01*
G01X1028332Y441107D01*
G02X1023332Y436107I-5000J-0D01*
G01X998331Y436107D01*
G02X993331Y441107I0J5000D01*
G01X993331Y486117D01*
G01X943339Y486117D01*
G01X943339Y441107D01*
G02X938339Y436107I-5000J0D01*
G01X913335Y436107D01*
G02X908335Y441107I0J5000D01*
G01X908335Y486117D01*
G01X858338Y486117D01*
G37*
G54D17*
G01X1118980Y308762D03*
G01X1205544Y308762D03*
G54D18*
G01X1080620Y993125D03*
G01X1220625Y993125D03*
G54D19*
G01X697760Y1522916D03*
G01X1459760Y1522916D03*
G54D18*
G01X698567Y1121409D03*
G01X838572Y1121409D03*
G54D20*
G01X1429169Y361985D03*
G01X1429169Y275422D03*
G54D21*
G01X3026870Y-63697D03*
G01X3026870Y1352907D03*
G01X3026870Y631422D03*
G54D22*
G01X-8261Y-538504D03*
G01X-8261Y-235025D03*
G01X378824Y-530441D03*
G01X378824Y-226961D03*
G01X742496Y-530441D03*
G01X742496Y-226961D03*
G01X1110632Y-530441D03*
G01X1110632Y-226961D03*
G01X1478768Y-525976D03*
G01X1478768Y-222497D03*
G01X1833511Y-530441D03*
G01X1833511Y-226961D03*
G54D23*
G01X-542760Y97375D03*
G01X-542760Y749805D03*
G54D24*
G01X-23277Y719849D03*
G54D23*
G01X-542760Y422046D03*
G54D24*
G01X236806Y241086D03*
G01X308130Y497100D03*
G54D23*
G01X-542760Y1070527D03*
G54D25*
G01X252566Y1488874D03*
G01X252566Y1048895D03*
G01X-123952Y1489142D03*
G01X-123952Y1049163D03*
G54D18*
G01X1872036Y1191462D03*
G01X2012040Y1191462D03*
G54D17*
G01X1207070Y89711D03*
G01X1120507Y89711D03*
G54D26*
G01X1487591Y881187D03*
G01X1717588Y881187D03*
G01X1947585Y881187D03*
G54D27*
G01X1717588Y309687D03*
G54D28*
G01X-505060Y1538186D03*
G01X-505060Y-379070D03*
G54D18*
G01X1514455Y1098386D03*
G01X1654460Y1098386D03*
G54D29*
G01X2064686Y244338D03*
G01X2064686Y104333D03*
G04 Pad End*

M02*

