G04 Layer: BottomPasteMaskLayer*
G04 EasyEDA Pro v2.2.44.9, 2025-11-29 07:34:24*
G04 Gerber Generator version 0.3*
G04 Scale: 100 percent, Rotated: No, Reflected: No*
G04 Dimensions in millimeters*
G04 Leading zeros omitted, absolute positions, 4 integers and 5 decimals*
G04 Generated by one-click*
%FSLAX45Y45*%
%MOMM*%
%AMPolygonMacro1*4,1,15,0.97499,0.55006,0.97499,-0.55004,0.97497,-0.55006,-0.72503,-0.55006,-0.72503,-0.54999,-0.97499,-0.54996,-0.97499,0.55006,-0.72498,0.55006,-0.72498,0.04996,-0.12506,0.04996,-0.12506,0.55006,0.12498,0.55006,0.12498,0.04996,0.72493,0.04996,0.72493,0.55006,0.97499,0.55006,0*%
%AMPolygonMacro2*4,1,15,-0.97498,-0.55006,-0.975,0.55004,-0.97495,0.55006,0.72502,0.55006,0.72502,0.54999,0.97498,0.54994,0.975,-0.55006,0.72499,-0.55006,0.72499,-0.04996,0.12507,-0.04996,0.12507,-0.55006,-0.12497,-0.55006,-0.12497,-0.04996,-0.72494,-0.04996,-0.72494,-0.55006,-0.97498,-0.55006,0*%
%AMRoundRect*1,1,$1,$2,$3*1,1,$1,$4,$5*1,1,$1,0-$2,0-$3*1,1,$1,0-$4,0-$5*20,1,$1,$2,$3,$4,$5,0*20,1,$1,$4,$5,0-$2,0-$3,0*20,1,$1,0-$2,0-$3,0-$4,0-$5,0*20,1,$1,0-$4,0-$5,$2,$3,0*4,1,4,$2,$3,$4,$5,0-$2,0-$3,0-$4,0-$5,$2,$3,0*%
%ADD10R,1.1X0.2*%
%ADD11R,0.8X0.2*%
%ADD12R,0.25001X0.8*%
%ADD13R,0.25001X0.7*%
%ADD14R,0.25001X1.1*%
%ADD15R,0.4X0.2*%
%ADD16C,0.1132*%
%ADD17PolygonMacro1*%
%ADD18PolygonMacro2*%
%ADD19R,0.8X0.9*%
%ADD20R,3.49987X5.19999*%
%ADD21R,2.5X2.5*%
%ADD22C,2.0*%
%ADD23R,2.0X2.0*%
%ADD24R,1.05001X2.46499*%
%ADD25R,3.54X2.46499*%
%ADD26RoundRect,0.4X-1.8X1.8X1.8X1.8*%
%ADD27R,0.9X0.8*%
G75*


G04 PolygonModel Start*
G36*
G01X1148762Y285763D02*
G01X1148762Y331762D01*
G01X1144761Y335763D01*
G01X1094698Y335763D01*
G01X1090698Y331762D01*
G01X1090698Y285763D01*
G01X1094698Y281762D01*
G01X1144761Y281762D01*
G01X1148762Y285763D01*
G37*
G36*
G01X1175762Y285763D02*
G01X1175762Y331762D01*
G01X1179763Y335763D01*
G01X1229826Y335763D01*
G01X1233827Y331762D01*
G01X1233827Y285763D01*
G01X1229826Y281762D01*
G01X1179763Y281762D01*
G01X1175762Y285763D01*
G37*
G36*
G01X1406170Y332204D02*
G01X1452169Y332204D01*
G01X1456170Y336204D01*
G01X1456170Y386268D01*
G01X1452169Y390268D01*
G01X1406170Y390268D01*
G01X1402169Y386268D01*
G01X1402169Y336204D01*
G01X1406170Y332204D01*
G37*
G36*
G01X1406170Y305204D02*
G01X1452169Y305204D01*
G01X1456170Y301203D01*
G01X1456170Y251140D01*
G01X1452169Y247139D01*
G01X1406170Y247139D01*
G01X1402169Y251140D01*
G01X1402169Y301203D01*
G01X1406170Y305204D01*
G37*
G36*
G01X116740Y-456764D02*
G01X47639Y-456764D01*
G01X37639Y-466764D01*
G01X37639Y-502355D01*
G01X27640Y-512355D01*
G01X-44161Y-512355D01*
G01X-54161Y-502355D01*
G01X-54161Y-466764D01*
G01X-64161Y-456764D01*
G01X-133262Y-456764D01*
G01X-143262Y-466764D01*
G01X-143262Y-610264D01*
G01X-133262Y-620264D01*
G01X116740Y-620264D01*
G01X126740Y-610264D01*
G01X126740Y-466764D01*
G01X116740Y-456764D01*
G37*
G36*
G01X116740Y-316765D02*
G01X47639Y-316765D01*
G01X37639Y-306765D01*
G01X37639Y-271174D01*
G01X27640Y-261174D01*
G01X-44161Y-261174D01*
G01X-54161Y-271174D01*
G01X-54161Y-306765D01*
G01X-64161Y-316765D01*
G01X-133262Y-316765D01*
G01X-143262Y-306765D01*
G01X-143262Y-163265D01*
G01X-133262Y-153265D01*
G01X116740Y-153265D01*
G01X126740Y-163265D01*
G01X126740Y-306765D01*
G01X116740Y-316765D01*
G37*
G36*
G01X503826Y-448701D02*
G01X434725Y-448701D01*
G01X424725Y-458701D01*
G01X424725Y-494291D01*
G01X414725Y-504291D01*
G01X342924Y-504291D01*
G01X332924Y-494291D01*
G01X332924Y-458701D01*
G01X322924Y-448701D01*
G01X253823Y-448701D01*
G01X243823Y-458701D01*
G01X243823Y-602201D01*
G01X253823Y-612201D01*
G01X503826Y-612201D01*
G01X513825Y-602201D01*
G01X513825Y-458701D01*
G01X503826Y-448701D01*
G37*
G36*
G01X503826Y-308701D02*
G01X434725Y-308701D01*
G01X424725Y-298701D01*
G01X424725Y-263111D01*
G01X414725Y-253111D01*
G01X342924Y-253111D01*
G01X332924Y-263111D01*
G01X332924Y-298701D01*
G01X322924Y-308701D01*
G01X253823Y-308701D01*
G01X243823Y-298701D01*
G01X243823Y-155201D01*
G01X253823Y-145201D01*
G01X503826Y-145201D01*
G01X513825Y-155201D01*
G01X513825Y-298701D01*
G01X503826Y-308701D01*
G37*
G36*
G01X867497Y-448701D02*
G01X798397Y-448701D01*
G01X788397Y-458701D01*
G01X788397Y-494291D01*
G01X778397Y-504291D01*
G01X706596Y-504291D01*
G01X696596Y-494291D01*
G01X696596Y-458701D01*
G01X686596Y-448701D01*
G01X617495Y-448701D01*
G01X607495Y-458701D01*
G01X607495Y-602201D01*
G01X617495Y-612201D01*
G01X867497Y-612201D01*
G01X877497Y-602201D01*
G01X877497Y-458701D01*
G01X867497Y-448701D01*
G37*
G36*
G01X867497Y-308701D02*
G01X798397Y-308701D01*
G01X788397Y-298701D01*
G01X788397Y-263111D01*
G01X778397Y-253111D01*
G01X706596Y-253111D01*
G01X696596Y-263111D01*
G01X696596Y-298701D01*
G01X686596Y-308701D01*
G01X617495Y-308701D01*
G01X607495Y-298701D01*
G01X607495Y-155201D01*
G01X617495Y-145201D01*
G01X867497Y-145201D01*
G01X877497Y-155201D01*
G01X877497Y-298701D01*
G01X867497Y-308701D01*
G37*
G36*
G01X1235633Y-448701D02*
G01X1166533Y-448701D01*
G01X1156533Y-458701D01*
G01X1156533Y-494291D01*
G01X1146533Y-504291D01*
G01X1074732Y-504291D01*
G01X1064732Y-494291D01*
G01X1064732Y-458701D01*
G01X1054732Y-448701D01*
G01X985631Y-448701D01*
G01X975631Y-458701D01*
G01X975631Y-602201D01*
G01X985631Y-612201D01*
G01X1235633Y-612201D01*
G01X1245633Y-602201D01*
G01X1245633Y-458701D01*
G01X1235633Y-448701D01*
G37*
G36*
G01X1235633Y-308701D02*
G01X1166533Y-308701D01*
G01X1156533Y-298701D01*
G01X1156533Y-263111D01*
G01X1146533Y-253111D01*
G01X1074732Y-253111D01*
G01X1064732Y-263111D01*
G01X1064732Y-298701D01*
G01X1054732Y-308701D01*
G01X985631Y-308701D01*
G01X975631Y-298701D01*
G01X975631Y-155201D01*
G01X985631Y-145201D01*
G01X1235633Y-145201D01*
G01X1245633Y-155201D01*
G01X1245633Y-298701D01*
G01X1235633Y-308701D01*
G37*
G36*
G01X1603769Y-444237D02*
G01X1534669Y-444237D01*
G01X1524669Y-454237D01*
G01X1524669Y-489827D01*
G01X1514669Y-499827D01*
G01X1442868Y-499827D01*
G01X1432868Y-489827D01*
G01X1432868Y-454237D01*
G01X1422868Y-444237D01*
G01X1353767Y-444237D01*
G01X1343767Y-454237D01*
G01X1343767Y-597736D01*
G01X1353767Y-607736D01*
G01X1603769Y-607736D01*
G01X1613769Y-597736D01*
G01X1613769Y-454237D01*
G01X1603769Y-444237D01*
G37*
G36*
G01X1603769Y-304237D02*
G01X1534669Y-304237D01*
G01X1524669Y-294237D01*
G01X1524669Y-258646D01*
G01X1514669Y-248646D01*
G01X1442868Y-248646D01*
G01X1432868Y-258646D01*
G01X1432868Y-294237D01*
G01X1422868Y-304237D01*
G01X1353767Y-304237D01*
G01X1343767Y-294237D01*
G01X1343767Y-150737D01*
G01X1353767Y-140737D01*
G01X1603769Y-140737D01*
G01X1613769Y-150737D01*
G01X1613769Y-294237D01*
G01X1603769Y-304237D01*
G37*
G36*
G01X1958512Y-448701D02*
G01X1889412Y-448701D01*
G01X1879412Y-458701D01*
G01X1879412Y-494291D01*
G01X1869412Y-504291D01*
G01X1797611Y-504291D01*
G01X1787611Y-494291D01*
G01X1787611Y-458701D01*
G01X1777611Y-448701D01*
G01X1708510Y-448701D01*
G01X1698510Y-458701D01*
G01X1698510Y-602201D01*
G01X1708510Y-612201D01*
G01X1958512Y-612201D01*
G01X1968512Y-602201D01*
G01X1968512Y-458701D01*
G01X1958512Y-448701D01*
G37*
G36*
G01X1958512Y-308701D02*
G01X1889412Y-308701D01*
G01X1879412Y-298701D01*
G01X1879412Y-263111D01*
G01X1869412Y-253111D01*
G01X1797611Y-253111D01*
G01X1787611Y-263111D01*
G01X1787611Y-298701D01*
G01X1777611Y-308701D01*
G01X1708510Y-308701D01*
G01X1698510Y-298701D01*
G01X1698510Y-155201D01*
G01X1708510Y-145201D01*
G01X1958512Y-145201D01*
G01X1968512Y-155201D01*
G01X1968512Y-298701D01*
G01X1958512Y-308701D01*
G37*
G36*
G01X1177288Y112711D02*
G01X1177288Y66711D01*
G01X1181289Y62711D01*
G01X1231352Y62711D01*
G01X1235353Y66711D01*
G01X1235353Y112711D01*
G01X1231352Y116711D01*
G01X1181289Y116711D01*
G01X1177288Y112711D01*
G37*
G36*
G01X1150288Y112711D02*
G01X1150288Y66711D01*
G01X1146288Y62711D01*
G01X1096224Y62711D01*
G01X1092224Y66711D01*
G01X1092224Y112711D01*
G01X1096224Y116711D01*
G01X1146288Y116711D01*
G01X1150288Y112711D01*
G37*

G04 Pad Start*
G54D10*
G01X1274734Y681104D03*
G01X1274734Y621110D03*
G54D11*
G01X1289618Y741099D03*
G54D10*
G01X1274734Y561115D03*
G54D11*
G01X1289618Y501120D03*
G54D12*
G01X1205824Y481105D03*
G54D13*
G01X1205824Y766118D03*
G54D14*
G01X1140825Y746103D03*
G01X1140825Y496116D03*
G01X1075827Y746103D03*
G01X1075827Y496116D03*
G54D15*
G01X1108339Y591112D03*
G01X1108339Y651107D03*
G54D17*
G01X925833Y746103D03*
G54D18*
G01X925832Y496114D03*
G54D19*
G01X1080620Y993125D03*
G01X1220625Y993125D03*
G54D20*
G01X697760Y1522916D03*
G01X1459760Y1522916D03*
G54D19*
G01X698567Y1121409D03*
G01X838572Y1121409D03*
G54D21*
G01X-542760Y97375D03*
G01X-542760Y749805D03*
G54D22*
G01X-23277Y719849D03*
G54D21*
G01X-542760Y422046D03*
G54D22*
G01X236806Y241086D03*
G01X308130Y497100D03*
G54D21*
G01X-542760Y1070527D03*
G54D23*
G01X252566Y1488874D03*
G01X252566Y1048895D03*
G01X-123952Y1489142D03*
G01X-123952Y1049163D03*
G54D19*
G01X1872036Y1191462D03*
G01X2012040Y1191462D03*
G54D24*
G01X1487591Y881187D03*
G01X1717588Y881187D03*
G01X1947585Y881187D03*
G54D25*
G01X1717588Y309687D03*
G54D26*
G01X-505060Y1538186D03*
G01X-505060Y-379070D03*
G54D19*
G01X1514455Y1098386D03*
G01X1654460Y1098386D03*
G54D27*
G01X2064686Y244338D03*
G01X2064686Y104333D03*
G04 Pad End*

M02*

