G04 Layer: TopSilkscreenLayer*
G04 EasyEDA Pro v2.2.44.9, 2025-11-29 07:34:24*
G04 Gerber Generator version 0.3*
G04 Scale: 100 percent, Rotated: No, Reflected: No*
G04 Dimensions in millimeters*
G04 Leading zeros omitted, absolute positions, 4 integers and 5 decimals*
G04 Generated by one-click*
%FSLAX45Y45*%
%MOMM*%
%ADD10C,0.1*%
%ADD11C,0.1524*%
%ADD12C,0.152*%
%ADD13C,0.0254*%
%ADD14C,0.254*%
%ADD15C,0.3045*%
%ADD16C,0.3*%
G75*


G04 Text Start*
G54D10*
G01X-169736Y81959D02*
G01X-173546Y78149D01*
G01X-175324Y72561D01*
G01X-175324Y65195D01*
G01X-173546Y59353D01*
G01X-169736Y55797D01*
G01X-165926Y55797D01*
G01X-162370Y57575D01*
G01X-160338Y59353D01*
G01X-158560Y63163D01*
G01X-154750Y74593D01*
G01X-152972Y78149D01*
G01X-150940Y80181D01*
G01X-147384Y81959D01*
G01X-141796Y81959D01*
G01X-137986Y78149D01*
G01X-135954Y72561D01*
G01X-135954Y65195D01*
G01X-137986Y59353D01*
G01X-141796Y55797D01*
G01X-165926Y129203D02*
G01X-169736Y127171D01*
G01X-173546Y123361D01*
G01X-175324Y119805D01*
G01X-175324Y112185D01*
G01X-173546Y108375D01*
G01X-169736Y104819D01*
G01X-165926Y102787D01*
G01X-160338Y101009D01*
G01X-150940Y101009D01*
G01X-145352Y102787D01*
G01X-141796Y104819D01*
G01X-137986Y108375D01*
G01X-135954Y112185D01*
G01X-135954Y119805D01*
G01X-137986Y123361D01*
G01X-141796Y127171D01*
G01X-145352Y129203D01*
G01X-169419Y-33376D02*
G01X-173229Y-37186D01*
G01X-175261Y-43028D01*
G01X-175261Y-50902D01*
G01X-173229Y-56744D01*
G01X-169419Y-60554D01*
G01X-165609Y-60554D01*
G01X-161545Y-58776D01*
G01X-159767Y-56744D01*
G01X-157735Y-52934D01*
G01X-153671Y-40996D01*
G01X-151893Y-37186D01*
G01X-149861Y-35154D01*
G01X-146051Y-33376D01*
G01X-140209Y-33376D01*
G01X-136145Y-37186D01*
G01X-134367Y-43028D01*
G01X-134367Y-50902D01*
G01X-136145Y-56744D01*
G01X-140209Y-60554D01*
G01X-175261Y-14072D02*
G01X-134367Y-14072D01*
G01X-175261Y-14072D02*
G01X-175261Y-356D01*
G01X-173229Y5486D01*
G01X-169419Y9550D01*
G01X-165609Y11328D01*
G01X-159767Y13360D01*
G01X-149861Y13360D01*
G01X-144019Y11328D01*
G01X-140209Y9550D01*
G01X-136145Y5486D01*
G01X-134367Y-356D01*
G01X-134367Y-14072D01*
G01X-171302Y-186498D02*
G01X-131932Y-186498D01*
G01X-171302Y-199452D02*
G01X-171302Y-173290D01*
G01X-171302Y-154240D02*
G01X-131932Y-128078D01*
G01X-171302Y-128078D02*
G01X-131932Y-154240D01*
G01X-170439Y-320159D02*
G01X-131069Y-320159D01*
G01X-170439Y-320159D02*
G01X-170439Y-303395D01*
G01X-168661Y-297807D01*
G01X-166883Y-295775D01*
G01X-163073Y-293997D01*
G01X-159263Y-293997D01*
G01X-155453Y-295775D01*
G01X-153675Y-297807D01*
G01X-151897Y-303395D01*
G01X-151897Y-320159D01*
G01X-151897Y-307205D02*
G01X-131069Y-293997D01*
G01X-170439Y-274947D02*
G01X-131069Y-248785D01*
G01X-170439Y-248785D02*
G01X-131069Y-274947D01*
G01X-174879Y-493376D02*
G01X-174879Y-472548D01*
G01X-159893Y-483978D01*
G01X-159893Y-478136D01*
G01X-158115Y-474580D01*
G01X-156337Y-472548D01*
G01X-150495Y-470770D01*
G01X-146939Y-470770D01*
G01X-141351Y-472548D01*
G01X-137541Y-476358D01*
G01X-135509Y-481946D01*
G01X-135509Y-487534D01*
G01X-137541Y-493376D01*
G01X-139319Y-495154D01*
G01X-143129Y-496932D01*
G01X-144907Y-449942D02*
G01X-143129Y-451720D01*
G01X-141351Y-449942D01*
G01X-143129Y-447910D01*
G01X-144907Y-449942D01*
G01X-174879Y-425050D02*
G01X-174879Y-404476D01*
G01X-159893Y-415906D01*
G01X-159893Y-410064D01*
G01X-158115Y-406508D01*
G01X-156337Y-404476D01*
G01X-150495Y-402698D01*
G01X-146939Y-402698D01*
G01X-141351Y-404476D01*
G01X-137541Y-408286D01*
G01X-135509Y-413874D01*
G01X-135509Y-419462D01*
G01X-137541Y-425050D01*
G01X-139319Y-427082D01*
G01X-143129Y-428860D01*
G01X-174879Y-383648D02*
G01X-135509Y-368662D01*
G01X-174879Y-353676D02*
G01X-135509Y-368662D01*
G01X-167276Y196838D02*
G01X-171086Y195060D01*
G01X-174896Y191250D01*
G01X-176674Y187694D01*
G01X-176674Y180074D01*
G01X-174896Y176264D01*
G01X-171086Y172454D01*
G01X-167276Y170676D01*
G01X-161688Y168898D01*
G01X-152290Y168898D01*
G01X-146702Y170676D01*
G01X-143146Y172454D01*
G01X-139336Y176264D01*
G01X-137304Y180074D01*
G01X-137304Y187694D01*
G01X-139336Y191250D01*
G01X-143146Y195060D01*
G01X-146702Y196838D01*
G01X-152290Y196838D01*
G01X-152290Y187694D02*
G01X-152290Y196838D01*
G01X-176674Y215888D02*
G01X-137304Y215888D01*
G01X-176674Y215888D02*
G01X-137304Y242050D01*
G01X-176674Y242050D02*
G01X-137304Y242050D01*
G01X-176674Y261100D02*
G01X-137304Y261100D01*
G01X-176674Y261100D02*
G01X-176674Y274054D01*
G01X-174896Y279896D01*
G01X-171086Y283452D01*
G01X-167276Y285484D01*
G01X-161688Y287262D01*
G01X-152290Y287262D01*
G01X-146702Y285484D01*
G01X-143146Y283452D01*
G01X-139336Y279896D01*
G01X-137304Y274054D01*
G01X-137304Y261100D01*
G54D11*
G01X-680814Y784443D02*
G01X-687164Y781395D01*
G01X-693260Y775045D01*
G01X-696308Y768949D01*
G01X-696308Y756503D01*
G01X-693260Y750407D01*
G01X-687164Y744057D01*
G01X-680814Y741009D01*
G01X-671670Y737961D01*
G01X-656176Y737961D01*
G01X-646778Y741009D01*
G01X-640682Y744057D01*
G01X-634332Y750407D01*
G01X-631284Y756503D01*
G01X-631284Y768949D01*
G01X-634332Y775045D01*
G01X-640682Y781395D01*
G01X-646778Y784443D01*
G01X-696308Y820765D02*
G01X-696308Y854801D01*
G01X-671670Y836259D01*
G01X-671670Y845403D01*
G01X-668622Y851753D01*
G01X-665320Y854801D01*
G01X-656176Y857849D01*
G01X-649826Y857849D01*
G01X-640682Y854801D01*
G01X-634332Y848705D01*
G01X-631284Y839307D01*
G01X-631284Y829909D01*
G01X-634332Y820765D01*
G01X-637634Y817717D01*
G01X-643730Y814669D01*
G01X-696308Y894171D02*
G01X-696308Y928207D01*
G01X-671670Y909665D01*
G01X-671670Y918809D01*
G01X-668622Y925159D01*
G01X-665320Y928207D01*
G01X-656176Y931255D01*
G01X-649826Y931255D01*
G01X-640682Y928207D01*
G01X-634332Y922111D01*
G01X-631284Y912713D01*
G01X-631284Y903315D01*
G01X-634332Y894171D01*
G01X-637634Y891123D01*
G01X-643730Y888075D01*
G01X-12928Y565863D02*
G01X-15976Y572213D01*
G01X-22326Y578309D01*
G01X-28422Y581357D01*
G01X-40868Y581357D01*
G01X-46964Y578309D01*
G01X-53314Y572213D01*
G01X-56362Y565863D01*
G01X-59410Y556719D01*
G01X-59410Y541225D01*
G01X-56362Y531827D01*
G01X-53314Y525731D01*
G01X-46964Y519381D01*
G01X-40868Y516333D01*
G01X-28422Y516333D01*
G01X-22326Y519381D01*
G01X-15976Y525731D01*
G01X-12928Y531827D01*
G01X17298Y568911D02*
G01X23394Y572213D01*
G01X32538Y581357D01*
G01X32538Y516333D01*
G01X65812Y565863D02*
G01X65812Y568911D01*
G01X68860Y575261D01*
G01X71908Y578309D01*
G01X78004Y581357D01*
G01X90450Y581357D01*
G01X96800Y578309D01*
G01X99848Y575261D01*
G01X102896Y568911D01*
G01X102896Y562815D01*
G01X99848Y556719D01*
G01X93498Y547321D01*
G01X62764Y516333D01*
G01X105944Y516333D01*
G01X238804Y203120D02*
G01X192322Y203120D01*
G01X183178Y200072D01*
G01X176828Y193722D01*
G01X173780Y184578D01*
G01X173780Y178228D01*
G01X176828Y169084D01*
G01X183178Y162988D01*
G01X192322Y159686D01*
G01X238804Y159686D01*
G01X217214Y89328D02*
G01X207816Y92376D01*
G01X201720Y98726D01*
G01X198672Y107870D01*
G01X198672Y110918D01*
G01X201720Y120316D01*
G01X207816Y126412D01*
G01X217214Y129460D01*
G01X220262Y129460D01*
G01X229660Y126412D01*
G01X235756Y120316D01*
G01X238804Y110918D01*
G01X238804Y107870D01*
G01X235756Y98726D01*
G01X229660Y92376D01*
G01X217214Y89328D01*
G01X201720Y89328D01*
G01X186226Y92376D01*
G01X176828Y98726D01*
G01X173780Y107870D01*
G01X173780Y114220D01*
G01X176828Y123364D01*
G01X183178Y126412D01*
G01X-333430Y653588D02*
G01X-398454Y653588D01*
G01X-333430Y653588D02*
G01X-333430Y625648D01*
G01X-336478Y616504D01*
G01X-339526Y613456D01*
G01X-345876Y610154D01*
G01X-351972Y610154D01*
G01X-358068Y613456D01*
G01X-361116Y616504D01*
G01X-364418Y625648D01*
G01X-364418Y653588D01*
G01X-364418Y631998D02*
G01X-398454Y610154D01*
G01X-345876Y579928D02*
G01X-342574Y573832D01*
G01X-333430Y564688D01*
G01X-398454Y564688D01*
G01X-333430Y519222D02*
G01X-336478Y528366D01*
G01X-342574Y531414D01*
G01X-348924Y531414D01*
G01X-355020Y528366D01*
G01X-358068Y522270D01*
G01X-361116Y509824D01*
G01X-364418Y500426D01*
G01X-370514Y494330D01*
G01X-376610Y491282D01*
G01X-386008Y491282D01*
G01X-392104Y494330D01*
G01X-395406Y497378D01*
G01X-398454Y506776D01*
G01X-398454Y519222D01*
G01X-395406Y528366D01*
G01X-392104Y531414D01*
G01X-386008Y534462D01*
G01X-376610Y534462D01*
G01X-370514Y531414D01*
G01X-364418Y525318D01*
G01X-361116Y515920D01*
G01X-358068Y503728D01*
G01X-355020Y497378D01*
G01X-348924Y494330D01*
G01X-342574Y494330D01*
G01X-336478Y497378D01*
G01X-333430Y506776D01*
G01X-333430Y519222D01*
G01X-276905Y683365D02*
G01X-283255Y680317D01*
G01X-289351Y673967D01*
G01X-292399Y667871D01*
G01X-292399Y655425D01*
G01X-289351Y649329D01*
G01X-283255Y642979D01*
G01X-276905Y639931D01*
G01X-267761Y636883D01*
G01X-252267Y636883D01*
G01X-242869Y639931D01*
G01X-236773Y642979D01*
G01X-230423Y649329D01*
G01X-227375Y655425D01*
G01X-227375Y667871D01*
G01X-230423Y673967D01*
G01X-236773Y680317D01*
G01X-242869Y683365D01*
G01X-292399Y719687D02*
G01X-292399Y753723D01*
G01X-267761Y735181D01*
G01X-267761Y744325D01*
G01X-264713Y750675D01*
G01X-261411Y753723D01*
G01X-252267Y756771D01*
G01X-245917Y756771D01*
G01X-236773Y753723D01*
G01X-230423Y747627D01*
G01X-227375Y738229D01*
G01X-227375Y728831D01*
G01X-230423Y719687D01*
G01X-233725Y716639D01*
G01X-239821Y713591D01*
G01X-292399Y817731D02*
G01X-249219Y786997D01*
G01X-249219Y833225D01*
G01X-292399Y817731D02*
G01X-227375Y817731D01*
G01X339146Y1544141D02*
G01X306278Y1511273D01*
G01X301968Y1502652D01*
G01X301968Y1493672D01*
G01X306278Y1485051D01*
G01X310768Y1480561D01*
G01X319390Y1476250D01*
G01X328190Y1476430D01*
G01X336991Y1480561D01*
G01X369859Y1513428D01*
G01X382431Y1483255D02*
G01X389076Y1481279D01*
G01X402008Y1481279D01*
G01X356029Y1435300D01*
G01X414580Y1451105D02*
G01X421226Y1449130D01*
G01X434157Y1449130D01*
G01X388178Y1403151D01*
G01X661134Y191015D02*
G01X596110Y191015D01*
G01X661134Y191015D02*
G01X661134Y163075D01*
G01X658086Y153931D01*
G01X655038Y150883D01*
G01X648688Y147581D01*
G01X642592Y147581D01*
G01X636496Y150883D01*
G01X633448Y153931D01*
G01X630146Y163075D01*
G01X630146Y191015D01*
G01X630146Y169425D02*
G01X596110Y147581D01*
G01X661134Y117355D02*
G01X596110Y117355D01*
G01X661134Y117355D02*
G01X596110Y74175D01*
G01X661134Y74175D02*
G01X596110Y74175D01*
G01X648688Y43949D02*
G01X651990Y37853D01*
G01X661134Y28709D01*
G01X596110Y28709D01*
G54D12*
G01X490045Y501394D02*
G01X496395Y504442D01*
G01X502491Y510792D01*
G01X505539Y516888D01*
G01X505539Y529334D01*
G01X502491Y535430D01*
G01X496395Y541780D01*
G01X490045Y544828D01*
G01X480901Y547876D01*
G01X465407Y547876D01*
G01X456009Y544828D01*
G01X449913Y541780D01*
G01X443563Y535430D01*
G01X440515Y529334D01*
G01X440515Y516888D01*
G01X443563Y510792D01*
G01X449913Y504442D01*
G01X456009Y501394D01*
G01X505539Y465072D02*
G01X505539Y431036D01*
G01X480901Y449578D01*
G01X480901Y440434D01*
G01X477853Y434084D01*
G01X474551Y431036D01*
G01X465407Y427988D01*
G01X459057Y427988D01*
G01X449913Y431036D01*
G01X443563Y437386D01*
G01X440515Y446530D01*
G01X440515Y455928D01*
G01X443563Y465072D01*
G01X446865Y468120D01*
G01X452961Y471422D01*
G01X505539Y382522D02*
G01X502491Y391666D01*
G01X496395Y394714D01*
G01X490045Y394714D01*
G01X483949Y391666D01*
G01X480901Y385570D01*
G01X477853Y373124D01*
G01X474551Y363980D01*
G01X468455Y357630D01*
G01X462359Y354582D01*
G01X452961Y354582D01*
G01X446865Y357630D01*
G01X443563Y360678D01*
G01X440515Y370076D01*
G01X440515Y382522D01*
G01X443563Y391666D01*
G01X446865Y394714D01*
G01X452961Y398016D01*
G01X462359Y398016D01*
G01X468455Y394714D01*
G01X474551Y388618D01*
G01X477853Y379220D01*
G01X480901Y367028D01*
G01X483949Y360678D01*
G01X490045Y357630D01*
G01X496395Y357630D01*
G01X502491Y360678D01*
G01X505539Y370076D01*
G01X505539Y382522D01*
G54D11*
G01X644418Y1032398D02*
G01X637773Y1034733D01*
G01X628972Y1034554D01*
G01X622506Y1032398D01*
G01X613706Y1023598D01*
G01X611550Y1017132D01*
G01X611371Y1008331D01*
G01X613706Y1001686D01*
G01X618016Y993065D01*
G01X628972Y982109D01*
G01X637773Y977619D01*
G01X644239Y975464D01*
G01X653219Y975464D01*
G01X659685Y977619D01*
G01X668485Y986420D01*
G01X670641Y992885D01*
G01X670641Y1001866D01*
G01X668485Y1008331D01*
G01X663636Y1055927D02*
G01X665612Y1062572D01*
G01X665612Y1075504D01*
G01X711591Y1029525D01*
G01X708717Y1118609D02*
G01X717518Y1066344D01*
G01X750206Y1099032D01*
G01X708717Y1118609D02*
G01X754696Y1072630D01*
G01X756082Y664259D02*
G01X756082Y599235D01*
G01X756082Y664259D02*
G01X784022Y664259D01*
G01X793166Y661211D01*
G01X796214Y658163D01*
G01X799516Y651813D01*
G01X799516Y645717D01*
G01X796214Y639621D01*
G01X793166Y636573D01*
G01X784022Y633271D01*
G01X756082Y633271D01*
G01X777672Y633271D02*
G01X799516Y599235D01*
G01X829742Y664259D02*
G01X829742Y599235D01*
G01X829742Y664259D02*
G01X872922Y599235D01*
G01X872922Y664259D02*
G01X872922Y599235D01*
G01X906196Y648765D02*
G01X906196Y651813D01*
G01X909244Y658163D01*
G01X912292Y661211D01*
G01X918388Y664259D01*
G01X930834Y664259D01*
G01X937184Y661211D01*
G01X940232Y658163D01*
G01X943280Y651813D01*
G01X943280Y645717D01*
G01X940232Y639621D01*
G01X933882Y630223D01*
G01X903148Y599235D01*
G01X946328Y599235D01*
G01X1402913Y225784D02*
G01X1337889Y225784D01*
G01X1402913Y225784D02*
G01X1402913Y197844D01*
G01X1399865Y188700D01*
G01X1396817Y185652D01*
G01X1390467Y182350D01*
G01X1384371Y182350D01*
G01X1378275Y185652D01*
G01X1375227Y188700D01*
G01X1371925Y197844D01*
G01X1371925Y225784D01*
G01X1371925Y204194D02*
G01X1337889Y182350D01*
G01X1402913Y152124D02*
G01X1337889Y152124D01*
G01X1402913Y152124D02*
G01X1337889Y108944D01*
G01X1402913Y108944D02*
G01X1337889Y108944D01*
G01X1402913Y72622D02*
G01X1402913Y38586D01*
G01X1378275Y57128D01*
G01X1378275Y47984D01*
G01X1375227Y41634D01*
G01X1371925Y38586D01*
G01X1362781Y35538D01*
G01X1356431Y35538D01*
G01X1347287Y38586D01*
G01X1340937Y44682D01*
G01X1337889Y54080D01*
G01X1337889Y63478D01*
G01X1340937Y72622D01*
G01X1344239Y75670D01*
G01X1350335Y78718D01*
G01X-513955Y1217035D02*
G01X-517003Y1223385D01*
G01X-523353Y1229481D01*
G01X-529449Y1232529D01*
G01X-541895Y1232529D01*
G01X-547991Y1229481D01*
G01X-554341Y1223385D01*
G01X-557389Y1217035D01*
G01X-560437Y1207891D01*
G01X-560437Y1192397D01*
G01X-557389Y1182999D01*
G01X-554341Y1176903D01*
G01X-547991Y1170553D01*
G01X-541895Y1167505D01*
G01X-529449Y1167505D01*
G01X-523353Y1170553D01*
G01X-517003Y1176903D01*
G01X-513955Y1182999D01*
G01X-483729Y1220083D02*
G01X-477633Y1223385D01*
G01X-468489Y1232529D01*
G01X-468489Y1167505D01*
G01X-438263Y1220083D02*
G01X-432167Y1223385D01*
G01X-423023Y1232529D01*
G01X-423023Y1167505D01*
G01X813840Y1381862D02*
G01X860322Y1381862D01*
G01X869466Y1384910D01*
G01X875816Y1391260D01*
G01X878864Y1400404D01*
G01X878864Y1406754D01*
G01X875816Y1415898D01*
G01X869466Y1421994D01*
G01X860322Y1425296D01*
G01X813840Y1425296D01*
G01X813840Y1498702D02*
G01X878864Y1467714D01*
G01X813840Y1455522D02*
G01X813840Y1498702D01*
G01X1551777Y1771895D02*
G01X1548729Y1778245D01*
G01X1542379Y1784341D01*
G01X1536283Y1787389D01*
G01X1523837Y1787389D01*
G01X1517741Y1784341D01*
G01X1511391Y1778245D01*
G01X1508343Y1771895D01*
G01X1505295Y1762751D01*
G01X1505295Y1747257D01*
G01X1508343Y1737859D01*
G01X1511391Y1731763D01*
G01X1517741Y1725413D01*
G01X1523837Y1722365D01*
G01X1536283Y1722365D01*
G01X1542379Y1725413D01*
G01X1548729Y1731763D01*
G01X1551777Y1737859D01*
G01X1582003Y1774943D02*
G01X1588099Y1778245D01*
G01X1597243Y1787389D01*
G01X1597243Y1722365D01*
G01X1664553Y1778245D02*
G01X1661505Y1784341D01*
G01X1652107Y1787389D01*
G01X1646011Y1787389D01*
G01X1636613Y1784341D01*
G01X1630517Y1774943D01*
G01X1627469Y1759703D01*
G01X1627469Y1744209D01*
G01X1630517Y1731763D01*
G01X1636613Y1725413D01*
G01X1646011Y1722365D01*
G01X1649059Y1722365D01*
G01X1658203Y1725413D01*
G01X1664553Y1731763D01*
G01X1667601Y1740907D01*
G01X1667601Y1744209D01*
G01X1664553Y1753353D01*
G01X1658203Y1759703D01*
G01X1649059Y1762751D01*
G01X1646011Y1762751D01*
G01X1636613Y1759703D01*
G01X1630517Y1753353D01*
G01X1627469Y1744209D01*
G01X1819480Y724758D02*
G01X1816432Y731108D01*
G01X1810082Y737204D01*
G01X1803986Y740252D01*
G01X1791540Y740252D01*
G01X1785444Y737204D01*
G01X1779094Y731108D01*
G01X1776046Y724758D01*
G01X1772998Y715614D01*
G01X1772998Y700120D01*
G01X1776046Y690722D01*
G01X1779094Y684626D01*
G01X1785444Y678276D01*
G01X1791540Y675228D01*
G01X1803986Y675228D01*
G01X1810082Y678276D01*
G01X1816432Y684626D01*
G01X1819480Y690722D01*
G01X1849706Y727806D02*
G01X1855802Y731108D01*
G01X1864946Y740252D01*
G01X1864946Y675228D01*
G01X1910412Y740252D02*
G01X1901268Y737204D01*
G01X1898220Y731108D01*
G01X1898220Y724758D01*
G01X1901268Y718662D01*
G01X1907364Y715614D01*
G01X1919810Y712566D01*
G01X1929208Y709264D01*
G01X1935304Y703168D01*
G01X1938352Y697072D01*
G01X1938352Y687674D01*
G01X1935304Y681578D01*
G01X1932256Y678276D01*
G01X1922858Y675228D01*
G01X1910412Y675228D01*
G01X1901268Y678276D01*
G01X1898220Y681578D01*
G01X1895172Y687674D01*
G01X1895172Y697072D01*
G01X1898220Y703168D01*
G01X1904316Y709264D01*
G01X1913714Y712566D01*
G01X1925906Y715614D01*
G01X1932256Y718662D01*
G01X1935304Y724758D01*
G01X1935304Y731108D01*
G01X1932256Y737204D01*
G01X1922858Y740252D01*
G01X1910412Y740252D01*
G01X1751154Y209823D02*
G01X1751154Y144799D01*
G01X1751154Y209823D02*
G01X1779094Y209823D01*
G01X1788238Y206775D01*
G01X1791286Y203727D01*
G01X1794588Y197377D01*
G01X1794588Y191281D01*
G01X1791286Y185185D01*
G01X1788238Y182137D01*
G01X1779094Y178835D01*
G01X1751154Y178835D01*
G01X1772744Y178835D02*
G01X1794588Y144799D01*
G01X1824814Y197377D02*
G01X1830910Y200679D01*
G01X1840054Y209823D01*
G01X1840054Y144799D01*
G01X1876376Y209823D02*
G01X1910412Y209823D01*
G01X1891870Y185185D01*
G01X1901014Y185185D01*
G01X1907364Y182137D01*
G01X1910412Y178835D01*
G01X1913460Y169691D01*
G01X1913460Y163341D01*
G01X1910412Y154197D01*
G01X1904316Y147847D01*
G01X1894918Y144799D01*
G01X1885520Y144799D01*
G01X1876376Y147847D01*
G01X1873328Y151149D01*
G01X1870280Y157245D01*
G01X1750823Y339395D02*
G01X1750823Y274371D01*
G01X1750823Y339395D02*
G01X1778763Y339395D01*
G01X1787907Y336347D01*
G01X1790955Y333299D01*
G01X1794257Y326949D01*
G01X1794257Y320853D01*
G01X1790955Y314757D01*
G01X1787907Y311709D01*
G01X1778763Y308407D01*
G01X1750823Y308407D01*
G01X1772413Y308407D02*
G01X1794257Y274371D01*
G01X1824483Y326949D02*
G01X1830579Y330251D01*
G01X1839723Y339395D01*
G01X1839723Y274371D01*
G01X1888491Y339395D02*
G01X1879093Y336347D01*
G01X1872997Y326949D01*
G01X1869949Y311709D01*
G01X1869949Y302311D01*
G01X1872997Y286817D01*
G01X1879093Y277419D01*
G01X1888491Y274371D01*
G01X1894587Y274371D01*
G01X1903985Y277419D01*
G01X1910081Y286817D01*
G01X1913129Y302311D01*
G01X1913129Y311709D01*
G01X1910081Y326949D01*
G01X1903985Y336347D01*
G01X1894587Y339395D01*
G01X1888491Y339395D01*
G01X1799436Y1409061D02*
G01X1796388Y1415411D01*
G01X1790038Y1421507D01*
G01X1783942Y1424555D01*
G01X1771496Y1424555D01*
G01X1765400Y1421507D01*
G01X1759050Y1415411D01*
G01X1756002Y1409061D01*
G01X1752954Y1399917D01*
G01X1752954Y1384423D01*
G01X1756002Y1375025D01*
G01X1759050Y1368929D01*
G01X1765400Y1362579D01*
G01X1771496Y1359531D01*
G01X1783942Y1359531D01*
G01X1790038Y1362579D01*
G01X1796388Y1368929D01*
G01X1799436Y1375025D01*
G01X1829662Y1412109D02*
G01X1835758Y1415411D01*
G01X1844902Y1424555D01*
G01X1844902Y1359531D01*
G01X1918308Y1424555D02*
G01X1887320Y1359531D01*
G01X1875128Y1424555D02*
G01X1918308Y1424555D01*
G01X1958934Y909089D02*
G01X1958934Y844065D01*
G01X1958934Y909089D02*
G01X1986874Y909089D01*
G01X1996018Y906041D01*
G01X1999066Y902993D01*
G01X2002368Y896643D01*
G01X2002368Y890547D01*
G01X1999066Y884451D01*
G01X1996018Y881403D01*
G01X1986874Y878101D01*
G01X1958934Y878101D01*
G01X1980524Y878101D02*
G01X2002368Y844065D01*
G01X2075774Y909089D02*
G01X2044786Y844065D01*
G01X2032594Y909089D02*
G01X2075774Y909089D01*
G01X2163475Y1224560D02*
G01X2098451Y1224560D01*
G01X2163475Y1224560D02*
G01X2163475Y1196620D01*
G01X2160427Y1187476D01*
G01X2157379Y1184428D01*
G01X2151029Y1181126D01*
G01X2144933Y1181126D01*
G01X2138837Y1184428D01*
G01X2135789Y1187476D01*
G01X2132487Y1196620D01*
G01X2132487Y1224560D01*
G01X2132487Y1202970D02*
G01X2098451Y1181126D01*
G01X2154331Y1113816D02*
G01X2160427Y1116864D01*
G01X2163475Y1126262D01*
G01X2163475Y1132358D01*
G01X2160427Y1141756D01*
G01X2151029Y1147852D01*
G01X2135789Y1150900D01*
G01X2120295Y1150900D01*
G01X2107849Y1147852D01*
G01X2101499Y1141756D01*
G01X2098451Y1132358D01*
G01X2098451Y1129310D01*
G01X2101499Y1120166D01*
G01X2107849Y1113816D01*
G01X2116993Y1110768D01*
G01X2120295Y1110768D01*
G01X2129439Y1113816D01*
G01X2135789Y1120166D01*
G01X2138837Y1129310D01*
G01X2138837Y1132358D01*
G01X2135789Y1141756D01*
G01X2129439Y1147852D01*
G01X2120295Y1150900D01*
G01X1892097Y1533477D02*
G01X1889049Y1539827D01*
G01X1882699Y1545923D01*
G01X1876603Y1548971D01*
G01X1864157Y1548971D01*
G01X1858061Y1545923D01*
G01X1851711Y1539827D01*
G01X1848663Y1533477D01*
G01X1845615Y1524333D01*
G01X1845615Y1508839D01*
G01X1848663Y1499441D01*
G01X1851711Y1493345D01*
G01X1858061Y1486995D01*
G01X1864157Y1483947D01*
G01X1876603Y1483947D01*
G01X1882699Y1486995D01*
G01X1889049Y1493345D01*
G01X1892097Y1499441D01*
G01X1928419Y1548971D02*
G01X1962455Y1548971D01*
G01X1943913Y1524333D01*
G01X1953057Y1524333D01*
G01X1959407Y1521285D01*
G01X1962455Y1517983D01*
G01X1965503Y1508839D01*
G01X1965503Y1502489D01*
G01X1962455Y1493345D01*
G01X1956359Y1486995D01*
G01X1946961Y1483947D01*
G01X1937563Y1483947D01*
G01X1928419Y1486995D01*
G01X1925371Y1490297D01*
G01X1922323Y1496393D01*
G01X2032813Y1548971D02*
G01X2001825Y1548971D01*
G01X1998777Y1521285D01*
G01X2001825Y1524333D01*
G01X2010969Y1527381D01*
G01X2020367Y1527381D01*
G01X2029765Y1524333D01*
G01X2035861Y1517983D01*
G01X2038909Y1508839D01*
G01X2038909Y1502489D01*
G01X2035861Y1493345D01*
G01X2029765Y1486995D01*
G01X2020367Y1483947D01*
G01X2010969Y1483947D01*
G01X2001825Y1486995D01*
G01X1998777Y1490297D01*
G01X1995729Y1496393D01*
G01X2402797Y-497601D02*
G01X2399749Y-491251D01*
G01X2393399Y-485155D01*
G01X2387303Y-482107D01*
G01X2374857Y-482107D01*
G01X2368761Y-485155D01*
G01X2362411Y-491251D01*
G01X2359363Y-497601D01*
G01X2356315Y-506745D01*
G01X2356315Y-522239D01*
G01X2359363Y-531637D01*
G01X2362411Y-537733D01*
G01X2368761Y-544083D01*
G01X2374857Y-547131D01*
G01X2387303Y-547131D01*
G01X2393399Y-544083D01*
G01X2399749Y-537733D01*
G01X2402797Y-531637D01*
G01X2439119Y-482107D02*
G01X2473155Y-482107D01*
G01X2454613Y-506745D01*
G01X2463757Y-506745D01*
G01X2470107Y-509793D01*
G01X2473155Y-513095D01*
G01X2476203Y-522239D01*
G01X2476203Y-528589D01*
G01X2473155Y-537733D01*
G01X2467059Y-544083D01*
G01X2457661Y-547131D01*
G01X2448263Y-547131D01*
G01X2439119Y-544083D01*
G01X2436071Y-540781D01*
G01X2433023Y-534685D01*
G01X2549609Y-482107D02*
G01X2518621Y-547131D01*
G01X2506429Y-482107D02*
G01X2549609Y-482107D01*
G01X-97645Y1576939D02*
G01X-97645Y1511915D01*
G01X-97645Y1576939D02*
G01X-76055Y1576939D01*
G01X-66657Y1573891D01*
G01X-60561Y1567795D01*
G01X-57513Y1561445D01*
G01X-54211Y1552301D01*
G01X-54211Y1536807D01*
G01X-57513Y1527409D01*
G01X-60561Y1521313D01*
G01X-66657Y1514963D01*
G01X-76055Y1511915D01*
G01X-97645Y1511915D01*
G01X13099Y1567795D02*
G01X10051Y1573891D01*
G01X653Y1576939D01*
G01X-5443Y1576939D01*
G01X-14841Y1573891D01*
G01X-20937Y1564493D01*
G01X-23985Y1549253D01*
G01X-23985Y1533759D01*
G01X-20937Y1521313D01*
G01X-14841Y1514963D01*
G01X-5443Y1511915D01*
G01X-2395Y1511915D01*
G01X6749Y1514963D01*
G01X13099Y1521313D01*
G01X16147Y1530457D01*
G01X16147Y1533759D01*
G01X13099Y1542903D01*
G01X6749Y1549253D01*
G01X-2395Y1552301D01*
G01X-5443Y1552301D01*
G01X-14841Y1549253D01*
G01X-20937Y1542903D01*
G01X-23985Y1533759D01*
G01X1748443Y455593D02*
G01X1748443Y390569D01*
G01X1748443Y455593D02*
G01X1776383Y455593D01*
G01X1785527Y452545D01*
G01X1788575Y449497D01*
G01X1791877Y443147D01*
G01X1791877Y437051D01*
G01X1788575Y430955D01*
G01X1785527Y427907D01*
G01X1776383Y424605D01*
G01X1748443Y424605D01*
G01X1770033Y424605D02*
G01X1791877Y390569D01*
G01X1822103Y443147D02*
G01X1828199Y446449D01*
G01X1837343Y455593D01*
G01X1837343Y390569D01*
G01X1870617Y440099D02*
G01X1870617Y443147D01*
G01X1873665Y449497D01*
G01X1876713Y452545D01*
G01X1882809Y455593D01*
G01X1895255Y455593D01*
G01X1901605Y452545D01*
G01X1904653Y449497D01*
G01X1907701Y443147D01*
G01X1907701Y437051D01*
G01X1904653Y430955D01*
G01X1898303Y421557D01*
G01X1867569Y390569D01*
G01X1910749Y390569D01*
G01X1746238Y584347D02*
G01X1746238Y519323D01*
G01X1746238Y584347D02*
G01X1774178Y584347D01*
G01X1783322Y581299D01*
G01X1786370Y578251D01*
G01X1789672Y571901D01*
G01X1789672Y565805D01*
G01X1786370Y559709D01*
G01X1783322Y556661D01*
G01X1774178Y553359D01*
G01X1746238Y553359D01*
G01X1767828Y553359D02*
G01X1789672Y519323D01*
G01X1860030Y562757D02*
G01X1856982Y553359D01*
G01X1850632Y547263D01*
G01X1841488Y544215D01*
G01X1838440Y544215D01*
G01X1829042Y547263D01*
G01X1822946Y553359D01*
G01X1819898Y562757D01*
G01X1819898Y565805D01*
G01X1822946Y575203D01*
G01X1829042Y581299D01*
G01X1838440Y584347D01*
G01X1841488Y584347D01*
G01X1850632Y581299D01*
G01X1856982Y575203D01*
G01X1860030Y562757D01*
G01X1860030Y547263D01*
G01X1856982Y531769D01*
G01X1850632Y522371D01*
G01X1841488Y519323D01*
G01X1835138Y519323D01*
G01X1825994Y522371D01*
G01X1822946Y528721D01*
G01X1821352Y51544D02*
G01X1818304Y57894D01*
G01X1811954Y63990D01*
G01X1805858Y67038D01*
G01X1793412Y67038D01*
G01X1787316Y63990D01*
G01X1780966Y57894D01*
G01X1777918Y51544D01*
G01X1774870Y42400D01*
G01X1774870Y26906D01*
G01X1777918Y17508D01*
G01X1780966Y11412D01*
G01X1787316Y5062D01*
G01X1793412Y2014D01*
G01X1805858Y2014D01*
G01X1811954Y5062D01*
G01X1818304Y11412D01*
G01X1821352Y17508D01*
G01X1857674Y67038D02*
G01X1891710Y67038D01*
G01X1873168Y42400D01*
G01X1882312Y42400D01*
G01X1888662Y39352D01*
G01X1891710Y36050D01*
G01X1894758Y26906D01*
G01X1894758Y20556D01*
G01X1891710Y11412D01*
G01X1885614Y5062D01*
G01X1876216Y2014D01*
G01X1866818Y2014D01*
G01X1857674Y5062D01*
G01X1854626Y8364D01*
G01X1851578Y14460D01*
G01X1962068Y57894D02*
G01X1959020Y63990D01*
G01X1949622Y67038D01*
G01X1943526Y67038D01*
G01X1934128Y63990D01*
G01X1928032Y54592D01*
G01X1924984Y39352D01*
G01X1924984Y23858D01*
G01X1928032Y11412D01*
G01X1934128Y5062D01*
G01X1943526Y2014D01*
G01X1946574Y2014D01*
G01X1955718Y5062D01*
G01X1962068Y11412D01*
G01X1965116Y20556D01*
G01X1965116Y23858D01*
G01X1962068Y33002D01*
G01X1955718Y39352D01*
G01X1946574Y42400D01*
G01X1943526Y42400D01*
G01X1934128Y39352D01*
G01X1928032Y33002D01*
G01X1924984Y23858D01*
G54D13*
G01X2796581Y-525165D02*
G01X2819695Y-534055D01*
G01X2796581Y-525165D02*
G01X2819695Y-516275D01*
G01X2812075Y-530753D02*
G01X2812075Y-519577D01*
G01X2796581Y-508401D02*
G01X2819695Y-508401D01*
G01X2796581Y-508401D02*
G01X2796581Y-498495D01*
G01X2797597Y-494939D01*
G01X2798613Y-493923D01*
G01X2800899Y-492907D01*
G01X2803185Y-492907D01*
G01X2805471Y-493923D01*
G01X2806487Y-494939D01*
G01X2807503Y-498495D01*
G01X2807503Y-508401D02*
G01X2807503Y-498495D01*
G01X2808773Y-494939D01*
G01X2809789Y-493923D01*
G01X2812075Y-492907D01*
G01X2815377Y-492907D01*
G01X2817663Y-493923D01*
G01X2818679Y-494939D01*
G01X2819695Y-498495D01*
G01X2819695Y-508401D01*
G01X2796581Y-485033D02*
G01X2819695Y-485033D01*
G01X2796581Y-477159D02*
G01X2819695Y-477159D01*
G01X2796581Y-477159D02*
G01X2796581Y-469285D01*
G01X2797597Y-465983D01*
G01X2799883Y-463697D01*
G01X2801915Y-462681D01*
G01X2805471Y-461665D01*
G01X2810805Y-461665D01*
G01X2814361Y-462681D01*
G01X2816393Y-463697D01*
G01X2818679Y-465983D01*
G01X2819695Y-469285D01*
G01X2819695Y-477159D01*
G04 Text End*

G04 PolygonModel Start*
G54D14*
G01X-352258Y438803D02*
G01X-352258Y266906D01*
G01X-352258Y-636201D02*
G01X-352258Y-464317D01*
G01X-444445Y-636201D02*
G01X-352258Y-636201D01*
G01X-777261Y-636201D02*
G01X-770670Y-636201D01*
G01X-777261Y438803D02*
G01X-777261Y-636201D01*
G01X-444445Y438803D02*
G01X-352258Y438803D01*
G01X-777261Y438803D02*
G01X-770670Y438803D01*
G01X-352258Y-339334D02*
G01X-352258Y-358084D01*
G01X-352258Y-214330D02*
G01X-352258Y-233101D01*
G01X-352258Y-89314D02*
G01X-352258Y-108102D01*
G01X-352258Y35682D02*
G01X-352258Y16919D01*
G01X-352258Y160673D02*
G01X-352258Y141910D01*
G54D11*
G01X-576246Y1106797D02*
G01X-576246Y965797D01*
G01X-395525Y965797D02*
G01X-395525Y1106797D01*
G01X-410765Y1122037D02*
G01X-561006Y1122037D01*
G01X-576246Y744558D02*
G01X-576246Y885558D01*
G01X-395525Y885558D02*
G01X-395525Y744558D01*
G01X-410765Y729318D02*
G01X-561006Y729318D01*
G01X-395525Y1106797D02*
G03X-410765Y1122037I-15240J0D01*
G01X-561006Y1122037D02*
G03X-576246Y1106797I0J-15240D01*
G01X-395525Y744558D02*
G02X-410765Y729318I-15240J0D01*
G01X-561006Y729318D02*
G02X-576246Y744558I0J15240D01*
G01X-69083Y331499D02*
G01X9926Y331499D01*
G01X9926Y431219D02*
G01X-69083Y431219D01*
G01X-84323Y415979D02*
G01X-84323Y346739D01*
G01X134178Y331499D02*
G01X55169Y331499D01*
G01X55169Y431219D02*
G01X134178Y431219D01*
G01X149418Y415979D02*
G01X149418Y346739D01*
G01X-69083Y431219D02*
G03X-84323Y415979I0J-15240D01*
G01X-84323Y346739D02*
G03X-69083Y331499I15240J0D01*
G01X134178Y431219D02*
G02X149418Y415979I0J-15240D01*
G01X149418Y346739D02*
G02X134178Y331499I-15240J0D01*
G54D10*
G01X131378Y98578D02*
G01X131378Y197577D01*
G01X131378Y197577D02*
G01X-68621Y197577D01*
G01X-68621Y197577D02*
G01X-68621Y99579D01*
G01X-68621Y99579D02*
G01X-67620Y98578D01*
G01X-67620Y98578D02*
G01X131378Y98578D01*
G54D11*
G01X-524911Y631006D02*
G01X-453108Y631006D01*
G01X-453108Y631006D02*
G01X-453108Y531285D01*
G01X-453108Y531285D02*
G01X-524911Y531285D01*
G01X-570154Y631006D02*
G01X-641957Y631006D01*
G01X-641957Y631006D02*
G01X-641957Y531285D01*
G01X-641957Y531285D02*
G01X-570154Y531285D01*
G01X-342798Y1078055D02*
G01X-342798Y999046D01*
G01X-243077Y999046D02*
G01X-243077Y1078055D01*
G01X-258317Y1093295D02*
G01X-327558Y1093295D01*
G01X-342798Y874794D02*
G01X-342798Y953803D01*
G01X-243077Y953803D02*
G01X-243077Y874794D01*
G01X-258317Y859554D02*
G01X-327558Y859554D01*
G01X-243077Y1078055D02*
G03X-258317Y1093295I-15240J0D01*
G01X-327558Y1093295D02*
G03X-342798Y1078055I0J-15240D01*
G01X-243077Y874794D02*
G02X-258317Y859554I-15240J0D01*
G01X-327558Y859554D02*
G02X-342798Y874794I0J15240D01*
G54D14*
G01X239084Y1430278D02*
G01X266007Y1403355D01*
G01X571371Y1097991D02*
G01X598294Y1071068D01*
G01X598294Y1071068D02*
G01X571371Y1044145D01*
G01X266025Y738798D02*
G01X239084Y711857D01*
G01X239084Y711857D02*
G01X212161Y738780D01*
G01X-93186Y1044127D02*
G01X-120126Y1071068D01*
G01X-120126Y1071068D02*
G01X-93204Y1097991D01*
G01X212161Y1403355D02*
G01X239084Y1430278D01*
G54D11*
G01X226444Y-644495D02*
G01X511686Y-644495D01*
G01X526926Y-629255D02*
G01X526926Y-465755D01*
G01X211204Y-465755D02*
G01X211204Y-629255D01*
G01X526926Y-147015D02*
G01X526926Y-310515D01*
G01X211204Y-310515D02*
G01X211204Y-147015D01*
G01X226444Y-131775D02*
G01X511686Y-131775D01*
G01X211204Y-629255D02*
G03X226444Y-644495I15240J0D01*
G01X511686Y-644495D02*
G03X526926Y-629255I0J15240D01*
G01X211204Y-147015D02*
G02X226444Y-131775I15240J0D01*
G01X511686Y-131775D02*
G02X526926Y-147015I0J-15240D01*
G01X461165Y-10035D02*
G01X534523Y-10035D01*
G01X534523Y-10035D02*
G01X534523Y235679D01*
G01X534523Y235679D02*
G01X461165Y235679D01*
G01X426164Y-10035D02*
G01X352807Y-10035D01*
G01X352807Y-10035D02*
G01X352807Y235679D01*
G01X352807Y235679D02*
G01X426164Y235679D01*
G01X629725Y372908D02*
G01X629725Y451917D01*
G01X530005Y451917D02*
G01X530005Y372908D01*
G01X545245Y357668D02*
G01X614485Y357668D01*
G01X629725Y576169D02*
G01X629725Y497160D01*
G01X530005Y497160D02*
G01X530005Y576169D01*
G01X545245Y591409D02*
G01X614485Y591409D01*
G01X530005Y372908D02*
G03X545245Y357668I15240J0D01*
G01X614485Y357668D02*
G03X629725Y372908I0J15240D01*
G01X530005Y576169D02*
G02X545245Y591409I15240J0D01*
G01X614485Y591409D02*
G02X629725Y576169I0J-15240D01*
G01X590195Y-635677D02*
G01X875437Y-635677D01*
G01X890677Y-620437D02*
G01X890677Y-456938D01*
G01X574955Y-456938D02*
G01X574955Y-620437D01*
G01X890677Y-138198D02*
G01X890677Y-301698D01*
G01X574955Y-301698D02*
G01X574955Y-138198D01*
G01X590195Y-122958D02*
G01X875437Y-122958D01*
G01X574955Y-620437D02*
G03X590195Y-635677I15240J0D01*
G01X875437Y-635677D02*
G03X890677Y-620437I0J15240D01*
G01X574955Y-138198D02*
G02X590195Y-122958I15240J0D01*
G01X875437Y-122958D02*
G02X890677Y-138198I0J-15240D01*
G54D14*
G01X816925Y881038D02*
G01X760358Y824471D01*
G01X856587Y920635D02*
G01X913153Y977202D01*
G01X716538Y981424D02*
G01X659971Y924858D01*
G01X756202Y1021020D02*
G01X812768Y1077587D01*
G01X716547Y824477D02*
G01X659975Y881049D01*
G01X856583Y1077581D02*
G01X913153Y1021011D01*
G01X812765Y1077583D02*
G02X856583Y1077581I21908J-21908D01*
G01X913150Y1021015D02*
G02X913150Y977198I-21908J-21908D01*
G01X760362Y824475D02*
G02X716547Y824477I-21906J21910D01*
G01X659980Y881043D02*
G02X659975Y924861I21905J21912D01*
G54D11*
G01X960222Y485928D02*
G01X960222Y559285D01*
G01X960222Y559285D02*
G01X714508Y559285D01*
G01X714508Y559285D02*
G01X714508Y485928D01*
G01X960222Y450926D02*
G01X960222Y377569D01*
G01X960222Y377569D02*
G01X714508Y377569D01*
G01X714508Y377569D02*
G01X714508Y450926D01*
G01X958356Y-635677D02*
G01X1243598Y-635677D01*
G01X1258838Y-620437D02*
G01X1258838Y-456938D01*
G01X943116Y-456938D02*
G01X943116Y-620437D01*
G01X1258838Y-138198D02*
G01X1258838Y-301698D01*
G01X943116Y-301698D02*
G01X943116Y-138198D01*
G01X958356Y-122958D02*
G01X1243598Y-122958D01*
G01X943116Y-620437D02*
G03X958356Y-635677I15240J0D01*
G01X1243598Y-635677D02*
G03X1258838Y-620437I0J15240D01*
G01X943116Y-138198D02*
G02X958356Y-122958I15240J0D01*
G01X1243598Y-122958D02*
G02X1258838Y-138198I0J-15240D01*
G01X1175459Y261084D02*
G01X1102101Y261084D01*
G01X1102101Y261084D02*
G01X1102101Y15370D01*
G01X1102101Y15370D02*
G01X1175459Y15370D01*
G01X1210460Y261084D02*
G01X1283818Y261084D01*
G01X1283818Y261084D02*
G01X1283818Y15370D01*
G01X1283818Y15370D02*
G01X1210460Y15370D01*
G54D14*
G01X-752571Y1143446D02*
G01X-752571Y1223444D01*
G01X-752616Y1087401D02*
G01X-752616Y1007404D01*
G01X-610602Y1143446D02*
G01X-610602Y1223444D01*
G01X-610651Y1087401D02*
G01X-610651Y1007404D01*
G01X-721588Y1254419D02*
G01X-641583Y1254419D01*
G01X-641636Y976426D02*
G01X-721638Y976426D01*
G01X-610651Y1007409D02*
G02X-641636Y976426I-30983J0D01*
G01X-721633Y976426D02*
G02X-752616Y1007409I0J30983D01*
G01X-752571Y1223438D02*
G02X-721588Y1254419I30983J-3D01*
G01X-641590Y1254419D02*
G02X-610602Y1223438I5J-30983D01*
G54D11*
G01X1153062Y1491002D02*
G01X1507341Y1491002D01*
G01X1507341Y1491002D02*
G01X1507341Y825761D01*
G01X1507341Y825761D02*
G01X1153062Y825761D01*
G01X1153062Y825761D02*
G01X1153062Y1491002D01*
G01X1320150Y-627281D02*
G01X1605392Y-627281D01*
G01X1620632Y-612041D02*
G01X1620632Y-448541D01*
G01X1304910Y-448541D02*
G01X1304910Y-612041D01*
G01X1620632Y-129802D02*
G01X1620632Y-293301D01*
G01X1304910Y-293301D02*
G01X1304910Y-129802D01*
G01X1320150Y-114562D02*
G01X1605392Y-114562D01*
G01X1304910Y-612041D02*
G03X1320150Y-627281I15240J0D01*
G01X1605392Y-627281D02*
G03X1620632Y-612041I0J15240D01*
G01X1304910Y-129802D02*
G02X1320150Y-114562I15240J0D01*
G01X1605392Y-114562D02*
G02X1620632Y-129802I0J-15240D01*
G54D14*
G01X1601009Y1671998D02*
G01X1681007Y1671998D01*
G01X1544964Y1672043D02*
G01X1464967Y1672043D01*
G01X1601009Y1530029D02*
G01X1681007Y1530029D01*
G01X1544964Y1530078D02*
G01X1464967Y1530078D01*
G01X1711982Y1641015D02*
G01X1711982Y1561010D01*
G01X1433989Y1561063D02*
G01X1433989Y1641066D01*
G01X1464972Y1530078D02*
G02X1433989Y1561063I0J30983D01*
G01X1433989Y1641060D02*
G02X1464972Y1672043I30983J0D01*
G01X1681001Y1671998D02*
G02X1711982Y1641015I-3J-30983D01*
G01X1711982Y1561017D02*
G02X1681001Y1530029I-30983J-5D01*
G01X1563578Y638139D02*
G01X1483581Y638139D01*
G01X1619623Y638093D02*
G01X1699620Y638093D01*
G01X1563578Y780107D02*
G01X1483581Y780107D01*
G01X1619623Y780059D02*
G01X1699620Y780059D01*
G01X1452605Y669122D02*
G01X1452605Y749127D01*
G01X1730598Y749073D02*
G01X1730598Y669071D01*
G01X1699615Y780059D02*
G02X1730598Y749073I0J-30983D01*
G01X1730598Y669076D02*
G02X1699615Y638093I-30983J0D01*
G01X1483586Y638139D02*
G02X1452605Y669122I3J30983D01*
G01X1452605Y749119D02*
G02X1483586Y780107I30983J5D01*
G54D11*
G01X1574790Y127521D02*
G01X1502987Y127521D01*
G01X1502987Y127521D02*
G01X1502987Y227241D01*
G01X1502987Y227241D02*
G01X1574790Y227241D01*
G01X1620033Y127521D02*
G01X1691836Y127521D01*
G01X1691836Y127521D02*
G01X1691836Y227241D01*
G01X1691836Y227241D02*
G01X1620033Y227241D01*
G01X1576741Y380464D02*
G01X1504938Y380464D01*
G01X1504938Y380464D02*
G01X1504938Y480185D01*
G01X1504938Y480185D02*
G01X1576741Y480185D01*
G01X1621984Y380464D02*
G01X1693787Y380464D01*
G01X1693787Y380464D02*
G01X1693787Y480185D01*
G01X1693787Y480185D02*
G01X1621984Y480185D01*
G01X1576741Y253464D02*
G01X1504938Y253464D01*
G01X1504938Y253464D02*
G01X1504938Y353185D01*
G01X1504938Y353185D02*
G01X1576741Y353185D01*
G01X1621984Y253464D02*
G01X1693787Y253464D01*
G01X1693787Y253464D02*
G01X1693787Y353185D01*
G01X1693787Y353185D02*
G01X1621984Y353185D01*
G01X1580029Y500980D02*
G01X1508226Y500980D01*
G01X1508226Y500980D02*
G01X1508226Y600700D01*
G01X1508226Y600700D02*
G01X1580029Y600700D01*
G01X1625271Y500980D02*
G01X1697075Y500980D01*
G01X1697075Y500980D02*
G01X1697075Y600700D01*
G01X1697075Y600700D02*
G01X1625271Y600700D01*
G01X1678731Y-626167D02*
G01X1963973Y-626167D01*
G01X1979213Y-610927D02*
G01X1979213Y-447427D01*
G01X1663491Y-447427D02*
G01X1663491Y-610927D01*
G01X1979213Y-128688D02*
G01X1979213Y-292188D01*
G01X1663491Y-292188D02*
G01X1663491Y-128688D01*
G01X1678731Y-113448D02*
G01X1963973Y-113448D01*
G01X1663491Y-610927D02*
G03X1678731Y-626167I15240J0D01*
G01X1963973Y-626167D02*
G03X1979213Y-610927I0J15240D01*
G01X1663491Y-128688D02*
G02X1678731Y-113448I15240J0D01*
G01X1963973Y-113448D02*
G02X1979213Y-128688I0J-15240D01*
G54D14*
G01X1759418Y1211509D02*
G01X1759418Y1291506D01*
G01X1759373Y1155464D02*
G01X1759373Y1075466D01*
G01X1901387Y1211509D02*
G01X1901387Y1291506D01*
G01X1901338Y1155464D02*
G01X1901338Y1075466D01*
G01X1790401Y1322481D02*
G01X1870406Y1322481D01*
G01X1870353Y1044489D02*
G01X1790350Y1044489D01*
G01X1901338Y1075472D02*
G02X1870353Y1044489I-30983J0D01*
G01X1790356Y1044489D02*
G02X1759373Y1075472I0J30983D01*
G01X1759418Y1291501D02*
G02X1790401Y1322481I30983J-3D01*
G01X1870399Y1322481D02*
G02X1901387Y1291501I5J-30983D01*
G54D11*
G01X1814061Y826192D02*
G01X1742258Y826192D01*
G01X1742258Y826192D02*
G01X1742258Y925912D01*
G01X1742258Y925912D02*
G01X1814061Y925912D01*
G01X1859304Y826192D02*
G01X1931107Y826192D01*
G01X1931107Y826192D02*
G01X1931107Y925912D01*
G01X1931107Y925912D02*
G01X1859304Y925912D01*
G01X1953836Y1228768D02*
G01X1953836Y1300571D01*
G01X1953836Y1300571D02*
G01X2053556Y1300571D01*
G01X2053556Y1300571D02*
G01X2053556Y1228768D01*
G01X1953836Y1183525D02*
G01X1953836Y1111722D01*
G01X1953836Y1111722D02*
G01X2053556Y1111722D01*
G01X2053556Y1111722D02*
G01X2053556Y1183525D01*
G54D14*
G01X1924598Y1598832D02*
G01X1844600Y1598832D01*
G01X1980643Y1598786D02*
G01X2060640Y1598786D01*
G01X1924598Y1740800D02*
G01X1844600Y1740800D01*
G01X1980643Y1740752D02*
G01X2060640Y1740752D01*
G01X1813625Y1629815D02*
G01X1813625Y1709820D01*
G01X2091618Y1709767D02*
G01X2091618Y1629764D01*
G01X2060635Y1740752D02*
G02X2091618Y1709767I0J-30983D01*
G01X2091618Y1629769D02*
G02X2060635Y1598786I-30983J0D01*
G01X1844605Y1598832D02*
G02X1813625Y1629815I3J30983D01*
G01X1813625Y1709812D02*
G02X1844605Y1740800I30983J5D01*
G01X2770873Y-535250D02*
G01X2770873Y-615248D01*
G01X2770919Y-479205D02*
G01X2770919Y-399208D01*
G01X2628905Y-535250D02*
G01X2628905Y-615248D01*
G01X2628953Y-479205D02*
G01X2628953Y-399208D01*
G01X2739890Y-646223D02*
G01X2659885Y-646223D01*
G01X2659939Y-368230D02*
G01X2739941Y-368230D01*
G01X2628953Y-399213D02*
G02X2659939Y-368230I30983J0D01*
G01X2739936Y-368230D02*
G02X2770919Y-399213I0J-30983D01*
G01X2770873Y-615243D02*
G02X2739890Y-646223I-30983J3D01*
G01X2659893Y-646223D02*
G02X2628905Y-615243I-5J30983D01*
G01X2136125Y164960D02*
G01X2136125Y84962D01*
G01X2136170Y221005D02*
G01X2136170Y301002D01*
G01X1994156Y164960D02*
G01X1994156Y84962D01*
G01X1994205Y221005D02*
G01X1994205Y301002D01*
G01X2105142Y53987D02*
G01X2025137Y53987D01*
G01X2025190Y331980D02*
G01X2105192Y331980D01*
G01X1994205Y300997D02*
G02X2025190Y331980I30983J0D01*
G01X2105187Y331980D02*
G02X2136170Y300997I0J-30983D01*
G01X2136125Y84968D02*
G02X2105142Y53987I-30983J3D01*
G01X2025144Y53987D02*
G02X1994156Y84968I-5J30983D01*
G54D10*
G01X2686430Y1680351D02*
G01X2698431Y1680351D01*
G01X2698431Y1680351D02*
G01X2698431Y1651352D01*
G01X2186014Y1683350D02*
G01X2170431Y1683350D01*
G01X2170431Y1683350D02*
G01X2170431Y1651265D01*
G01X2259847Y1679350D02*
G01X2601431Y1679350D01*
G01X2609013Y1067352D02*
G01X2267429Y1067352D01*
G01X2682846Y1063352D02*
G01X2698429Y1063352D01*
G01X2698429Y1063352D02*
G01X2698429Y1095437D01*
G01X2182430Y1066351D02*
G01X2170429Y1066351D01*
G01X2170429Y1066351D02*
G01X2170429Y1095351D01*
G01X2692464Y972238D02*
G01X2704466Y972238D01*
G01X2704466Y972238D02*
G01X2704466Y943239D01*
G01X2192048Y975238D02*
G01X2176466Y975238D01*
G01X2176466Y975238D02*
G01X2176466Y943153D01*
G01X2265881Y971237D02*
G01X2607465Y971237D01*
G01X2615047Y359240D02*
G01X2273463Y359240D01*
G01X2688880Y355239D02*
G01X2704463Y355239D01*
G01X2704463Y355239D02*
G01X2704463Y387324D01*
G01X2188465Y358239D02*
G01X2176463Y358239D01*
G01X2176463Y358239D02*
G01X2176463Y387238D01*
G01X2685002Y275183D02*
G01X2697003Y275183D01*
G01X2697003Y275183D02*
G01X2697003Y246183D01*
G01X2184586Y278182D02*
G01X2169004Y278182D01*
G01X2169004Y278182D02*
G01X2169004Y246097D01*
G01X2258419Y274182D02*
G01X2600003Y274182D01*
G01X2607585Y-337816D02*
G01X2266001Y-337816D01*
G01X2681418Y-341816D02*
G01X2697001Y-341816D01*
G01X2697001Y-341816D02*
G01X2697001Y-309731D01*
G01X2181002Y-338817D02*
G01X2169001Y-338817D01*
G01X2169001Y-338817D02*
G01X2169001Y-309818D01*
G54D14*
G01X-680938Y1797508D02*
G01X-680938Y1808389D01*
G01X-680938Y1477509D02*
G01X-680938Y1631278D01*
G01X-172938Y1311281D02*
G01X-172938Y1300389D01*
G01X-172938Y1300389D02*
G01X-680938Y1300389D01*
G01X-680938Y1300389D02*
G01X-680938Y1311281D01*
G01X-172938Y1631278D02*
G01X-172938Y1477509D01*
G01X-680938Y1808389D02*
G01X-172938Y1808389D01*
G01X-172938Y1808389D02*
G01X-172938Y1797508D01*
G36*
G01X-216799Y1245858D02*
G01X-149489Y1245858D01*
G01X-149489Y1318248D01*
G01X-216799Y1245858D01*
G37*

G04 Circle Start*
G01X-301468Y333484D02*
G03X-276068Y333484I12700J0D01*
G03X-301468Y333484I-12700J0D01*
G54D10*
G01X133385Y239586D02*
G03X143393Y239586I5004J0D01*
G03X133385Y239586I-5004J0D01*
G01X104378Y174588D02*
G03X114386Y174588I5004J0D01*
G03X104378Y174588I-5004J0D01*
G54D14*
G01X-150787Y1071068D02*
G03X-125387Y1071068I12700J0D01*
G03X-150787Y1071068I-12700J0D01*
G54D16*
G01X1213285Y1450888D02*
G03X1243308Y1450888I15011J0D01*
G03X1213285Y1450888I-15011J0D01*
G01X1028094Y1514312D02*
G03X1058117Y1514312I15011J0D01*
G03X1028094Y1514312I-15011J0D01*
G04 Circle End*

M02*

