G04 Layer: BottomLayer*
G04 EasyEDA Pro v2.2.44.9, 2025-11-29 07:34:24*
G04 Gerber Generator version 0.3*
G04 Scale: 100 percent, Rotated: No, Reflected: No*
G04 Dimensions in millimeters*
G04 Leading zeros omitted, absolute positions, 4 integers and 5 decimals*
G04 Generated by one-click*
%FSLAX45Y45*%
%MOMM*%
%AMPolygonMacro1*4,1,15,0.97499,0.55006,0.97499,-0.55004,0.97497,-0.55006,-0.72503,-0.55006,-0.72503,-0.54999,-0.97499,-0.54996,-0.97499,0.55006,-0.72498,0.55006,-0.72498,0.04996,-0.12506,0.04996,-0.12506,0.55006,0.12498,0.55006,0.12498,0.04996,0.72493,0.04996,0.72493,0.55006,0.97499,0.55006,0*%
%AMPolygonMacro2*4,1,15,-0.97498,-0.55006,-0.975,0.55004,-0.97495,0.55006,0.72502,0.55006,0.72502,0.54999,0.97498,0.54994,0.975,-0.55006,0.72499,-0.55006,0.72499,-0.04996,0.12507,-0.04996,0.12507,-0.55006,-0.12497,-0.55006,-0.12497,-0.04996,-0.72494,-0.04996,-0.72494,-0.55006,-0.97498,-0.55006,0*%
%AMRoundRect*1,1,$1,$2,$3*1,1,$1,$4,$5*1,1,$1,0-$2,0-$3*1,1,$1,0-$4,0-$5*20,1,$1,$2,$3,$4,$5,0*20,1,$1,$4,$5,0-$2,0-$3,0*20,1,$1,0-$2,0-$3,0-$4,0-$5,0*20,1,$1,0-$4,0-$5,$2,$3,0*4,1,4,$2,$3,$4,$5,0-$2,0-$3,0-$4,0-$5,$2,$3,0*%
%ADD10C,0.2032*%
%ADD11C,0.254*%
%ADD12R,1.1X0.2*%
%ADD13R,0.8X0.2*%
%ADD14R,0.25001X0.8*%
%ADD15R,0.25001X0.7*%
%ADD16R,0.25001X1.1*%
%ADD17R,0.4019X0.2*%
%ADD18R,0.4X0.2*%
%ADD19PolygonMacro1*%
%ADD20PolygonMacro2*%
%ADD21R,0.56566X0.54*%
%ADD22R,0.8X0.9*%
%ADD23R,3.49987X5.19999*%
%ADD24R,0.54X0.56566*%
%ADD25C,4.0*%
%ADD26R,2.69999X1.635*%
%ADD27R,2.5X2.5*%
%ADD28C,2.0*%
%ADD29R,2.0X2.0*%
%ADD30R,1.05001X2.46499*%
%ADD31R,3.54X2.46499*%
%ADD32RoundRect,0.4X-1.8X1.8X1.8X1.8*%
%ADD33R,0.9X0.8*%
%ADD34C,0.61*%
G75*


G04 Copper Start*
G36*
G01X2650211Y1627449D02*
G01X2777476Y1627449D01*
G01X2784386Y1622953D01*
G01X2792142Y1620157D01*
G01X2800330Y1619209D01*
G01X3251914Y1619209D01*
G01X3251914Y1073304D01*
G01X2822766Y1074273D01*
G01X2822766Y1156457D01*
G01X2821405Y1161537D01*
G01X2817686Y1165256D01*
G01X2812606Y1166617D01*
G01X2650211Y1166617D01*
G01X2650211Y1627449D01*
G37*
G36*
G01X2707177Y921446D02*
G01X2785253Y921481D01*
G01X2793055Y920620D01*
G01X3252504Y920620D01*
G01X3252504Y368813D01*
G01X2822750Y368813D01*
G01X2822750Y452589D01*
G01X2821389Y457669D01*
G01X2817670Y461387D01*
G01X2812590Y462749D01*
G01X2650196Y462749D01*
G01X2650196Y921446D01*
G01X2707177Y921446D01*
G37*
G36*
G01X2587689Y290791D02*
G01X2587689Y-275498D01*
G01X2279585Y-275498D01*
G01X2279585Y290791D01*
G01X2587689Y290791D01*
G37*
G36*
G01X2279585Y999763D02*
G01X2587689Y999763D01*
G01X2587689Y462242D01*
G01X2279585Y462242D01*
G01X2279585Y999763D01*
G37*
G36*
G01X2587689Y1809707D02*
G01X2587689Y1271400D01*
G01X2279585Y1271400D01*
G01X2279585Y1809707D01*
G01X2587689Y1809707D01*
G37*
G36*
G01X2712490Y1627422D02*
G01X2777509Y1627422D01*
G01X2784412Y1622941D01*
G01X2792155Y1620154D01*
G01X2800330Y1619209D01*
G01X3251914Y1619209D01*
G01X3251914Y1073304D01*
G01X2821767Y1074276D01*
G01X2821767Y1156377D01*
G01X2820406Y1161457D01*
G01X2816687Y1165176D01*
G01X2811607Y1166537D01*
G01X2649212Y1166537D01*
G01X2649212Y1625235D01*
G01X2706193Y1625235D01*
G01X2709526Y1625797D01*
G01X2712490Y1627422D01*
G37*
G36*
G01X2650283Y921624D02*
G01X2784636Y921624D01*
G01X2793055Y920620D01*
G01X3252504Y920620D01*
G01X3252504Y368813D01*
G01X2822837Y368813D01*
G01X2822837Y452766D01*
G01X2821476Y457846D01*
G01X2817757Y461565D01*
G01X2812677Y462926D01*
G01X2650283Y462926D01*
G01X2650283Y921624D01*
G37*
G36*
G01X1218840Y1355580D02*
G01X1218840Y1713700D01*
G01X2588034Y1713700D01*
G01X2588034Y1355580D01*
G01X1218840Y1355580D01*
G37*
G36*
G01X-693211Y1353368D02*
G01X-693211Y1717329D01*
G01X941782Y1717329D01*
G01X941782Y1353368D01*
G01X-693211Y1353368D01*
G37*
G36*
G01X1670567Y1782915D02*
G01X1669155Y1792872D01*
G01X1665031Y1802044D01*
G01X1658519Y1809707D01*
G01X2222559Y1809707D01*
G01X2222559Y1759674D01*
G01X1670567Y1759674D01*
G01X1670567Y1782915D01*
G37*
G36*
G01X-159040Y-391950D02*
G01X-156910Y-391950D01*
G01X-150608Y-405656D01*
G01X-141372Y-417583D01*
G01X-129680Y-427114D01*
G01X-116136Y-433756D01*
G01X-101441Y-437165D01*
G01X-86356Y-437165D01*
G01X-71661Y-433756D01*
G01X-58117Y-427114D01*
G01X-46425Y-417583D01*
G01X-37189Y-405656D01*
G01X-30888Y-391950D01*
G01X2585830Y-391950D01*
G01X2585830Y-641266D01*
G01X-159040Y-641266D01*
G01X-159040Y-391950D01*
G37*
G36*
G01X2706221Y220368D02*
G01X2780064Y220400D01*
G01X2789172Y216344D01*
G01X2799046Y214956D01*
G01X3254148Y214956D01*
G01X3254148Y-321179D01*
G01X2847437Y-321179D01*
G01X2838022Y-322439D01*
G01X2829270Y-326129D01*
G01X2821795Y-331991D01*
G01X2821795Y-248490D01*
G01X2820434Y-243410D01*
G01X2816715Y-239691D01*
G01X2811635Y-238330D01*
G01X2648228Y-238330D01*
G01X2648228Y220368D01*
G01X2706221Y220368D01*
G37*
G36*
G01X995091Y-278354D02*
G01X995091Y-20346D01*
G01X1007434Y-8003D01*
G01X1782703Y-8003D01*
G01X1782703Y-278354D01*
G01X995091Y-278354D01*
G37*
G36*
G01X168879Y-324410D02*
G01X168879Y-124678D01*
G01X870664Y-124678D01*
G01X883220Y-123025D01*
G01X894921Y-118179D01*
G01X904968Y-110469D01*
G01X995904Y-19533D01*
G01X1860247Y-19533D01*
G01X1991360Y-150647D01*
G01X1991360Y-324410D01*
G01X168879Y-324410D01*
G37*
G36*
G01X1254640Y732950D02*
G01X1254640Y754550D01*
G01X1330811Y754550D01*
G01X1330811Y732950D01*
G01X1254640Y732950D01*
G37*
G36*
G01X1192940Y731790D02*
G01X1192940Y1020290D01*
G01X1280430Y1020290D01*
G01X1280430Y731790D01*
G01X1192940Y731790D01*
G37*
G36*
G01X1110240Y1142410D02*
G01X1110240Y1073938D01*
G01X1040620Y1073938D01*
G01X1029553Y1072186D01*
G01X1019570Y1067099D01*
G01X1011646Y1059175D01*
G01X1006559Y1049192D01*
G01X1004806Y1038124D01*
G01X1004806Y959470D01*
G01X963240Y959470D01*
G01X963240Y1142410D01*
G01X1110240Y1142410D01*
G37*
G36*
G01X-747870Y-142400D02*
G01X-525464Y-142400D01*
G01X-516436Y-155855D01*
G01X-504414Y-166719D01*
G01X-490117Y-174344D01*
G01X-474397Y-178273D01*
G01X-458194Y-178273D01*
G01X-442474Y-174344D01*
G01X-428176Y-166719D01*
G01X-416155Y-155855D01*
G01X-407127Y-142400D01*
G01X-255270Y-142400D01*
G01X-255270Y-629940D01*
G01X-747870Y-629940D01*
G01X-747870Y-142400D01*
G37*
G36*
G01X-783463Y-641044D02*
G01X-783463Y-112456D01*
G01X-532609Y-112456D01*
G01X-530682Y-128326D01*
G01X-525013Y-143274D01*
G01X-515932Y-156430D01*
G01X-503966Y-167031D01*
G01X-489811Y-174461D01*
G01X-474289Y-178287D01*
G01X-458302Y-178287D01*
G01X-442780Y-174461D01*
G01X-428625Y-167031D01*
G01X-416658Y-156430D01*
G01X-407577Y-143274D01*
G01X-401908Y-128326D01*
G01X-399981Y-112456D01*
G01X-401045Y-103695D01*
G01X-225307Y-103695D01*
G01X-223380Y-119565D01*
G01X-217711Y-134513D01*
G01X-208629Y-147670D01*
G01X-196663Y-158271D01*
G01X-182508Y-165700D01*
G01X-166986Y-169526D01*
G01X-150999Y-169526D01*
G01X-135477Y-165700D01*
G01X-121322Y-158271D01*
G01X-109356Y-147670D01*
G01X-100274Y-134513D01*
G01X-94605Y-119565D01*
G01X-92679Y-103695D01*
G01X-94605Y-87826D01*
G01X-100274Y-72878D01*
G01X-109356Y-59721D01*
G01X-121322Y-49120D01*
G01X-135477Y-41691D01*
G01X-150999Y-37865D01*
G01X-166986Y-37865D01*
G01X-182508Y-41691D01*
G01X-196663Y-49120D01*
G01X-208629Y-59721D01*
G01X-217711Y-72878D01*
G01X-223380Y-87826D01*
G01X-225307Y-103695D01*
G01X-225307Y-103695D01*
G01X-401045Y-103695D01*
G01X-401908Y-96586D01*
G01X-407577Y-81638D01*
G01X-416658Y-68482D01*
G01X-428625Y-57881D01*
G01X-442780Y-50451D01*
G01X-458302Y-46625D01*
G01X-474289Y-46625D01*
G01X-489811Y-50451D01*
G01X-503966Y-57881D01*
G01X-515932Y-68482D01*
G01X-525013Y-81638D01*
G01X-530682Y-96586D01*
G01X-532609Y-112456D01*
G01X-532609Y-112456D01*
G01X-783463Y-112456D01*
G01X-783463Y591300D01*
G01X-773562Y581399D01*
G01X-771329Y566520D01*
G01X-765801Y552527D01*
G01X-757260Y540141D01*
G01X-746146Y529998D01*
G01X-733033Y522622D01*
G01X-718594Y518392D01*
G01X-703574Y517525D01*
G01X-703574Y297046D01*
G01X-701821Y285979D01*
G01X-696734Y275995D01*
G01X-688811Y268072D01*
G01X-678827Y262985D01*
G01X-667760Y261232D01*
G01X-417760Y261232D01*
G01X-406693Y262985D01*
G01X-396709Y268072D01*
G01X-388786Y275995D01*
G01X-383699Y285979D01*
G01X-381946Y297046D01*
G01X-381946Y504162D01*
G01X-307399Y578709D01*
G01X-307399Y393510D01*
G01X-305746Y380953D01*
G01X-300899Y369253D01*
G01X-293190Y359205D01*
G01X-97366Y163382D01*
G01X-112779Y161436D01*
G01X-127315Y155957D01*
G01X-140178Y147247D01*
G01X-150662Y135783D01*
G01X-158191Y122195D01*
G01X-162352Y107228D01*
G01X-162917Y91704D01*
G01X-159855Y76474D01*
G01X-153334Y62375D01*
G01X-143712Y50179D01*
G01X-131516Y40557D01*
G01X-117417Y34036D01*
G01X-102187Y30974D01*
G01X-86663Y31539D01*
G01X-71696Y35700D01*
G01X-58108Y43229D01*
G01X-46644Y53713D01*
G01X-37934Y66576D01*
G01X-32455Y81112D01*
G01X-30509Y96525D01*
G01X89659Y-23643D01*
G01X94201Y-27650D01*
G01X74274Y-27650D01*
G01X61903Y-18552D01*
G01X47770Y-12543D01*
G01X32635Y-9946D01*
G01X17308Y-10901D01*
G01X2611Y-15355D01*
G01X-10667Y-23070D01*
G01X-21814Y-33632D01*
G01X-30233Y-46475D01*
G01X-35472Y-60911D01*
G01X-37250Y-76164D01*
G01X-35472Y-91418D01*
G01X-30233Y-105853D01*
G01X-21814Y-118696D01*
G01X-10667Y-129259D01*
G01X2611Y-136974D01*
G01X17308Y-141428D01*
G01X32635Y-142382D01*
G01X47770Y-139785D01*
G01X61903Y-133776D01*
G01X74274Y-124678D01*
G01X870664Y-124678D01*
G01X883220Y-123025D01*
G01X894921Y-118179D01*
G01X904968Y-110469D01*
G01X1031667Y16230D01*
G01X1039377Y26277D01*
G01X1044223Y37978D01*
G01X1045876Y50534D01*
G01X1045876Y98915D01*
G01X1044223Y111471D01*
G01X1039377Y123172D01*
G01X1031667Y133219D01*
G01X1012581Y152305D01*
G01X1028197Y148465D01*
G01X1044277Y148497D01*
G01X1059877Y152398D01*
G01X1074079Y159940D01*
G01X1086049Y170678D01*
G01X1095082Y183982D01*
G01X1100647Y199069D01*
G01X1102417Y215052D01*
G01X1100288Y230990D01*
G01X1094385Y245948D01*
G01X1147263Y245948D01*
G01X1154640Y246716D01*
G01X1154640Y143160D01*
G01X1148328Y135550D01*
G01X1144338Y126504D01*
G01X1142973Y116711D01*
G01X1142973Y62711D01*
G01X1144726Y51644D01*
G01X1149813Y41660D01*
G01X1157736Y33737D01*
G01X1167720Y28650D01*
G01X1178787Y26897D01*
G01X1235353Y26897D01*
G01X1246420Y28650D01*
G01X1256404Y33737D01*
G01X1264327Y41660D01*
G01X1269414Y51644D01*
G01X1271167Y62711D01*
G01X1271167Y116711D01*
G01X1269826Y126418D01*
G01X1265906Y135397D01*
G01X1259698Y142979D01*
G01X1251668Y148593D01*
G01X1251668Y250708D01*
G01X1259110Y256397D01*
G01X1264823Y263822D01*
G01X1268415Y272474D01*
G01X1269641Y281762D01*
G01X1269641Y335763D01*
G01X1267936Y346679D01*
G01X1262986Y356556D01*
G01X1255261Y364454D01*
G01X1255261Y455306D01*
G01X1309004Y455306D01*
G01X1309004Y320365D01*
G01X1310658Y307808D01*
G01X1315504Y296108D01*
G01X1323214Y286060D01*
G01X1366640Y242634D01*
G01X1368445Y235085D01*
G01X1371834Y228101D01*
G01X1359793Y219696D01*
G01X1349897Y208847D01*
G01X1342631Y196085D01*
G01X1338352Y182038D01*
G01X1337269Y167393D01*
G01X1339436Y152869D01*
G01X1344746Y139178D01*
G01X1352940Y126991D01*
G01X1363614Y116906D01*
G01X1376246Y109418D01*
G01X1390217Y104894D01*
G01X1404840Y103555D01*
G01X1419400Y105467D01*
G01X1433182Y110537D01*
G01X1445510Y118516D01*
G01X1455780Y129012D01*
G01X1463488Y141512D01*
G01X1468257Y155401D01*
G01X1472628Y147516D01*
G01X1478383Y140576D01*
G01X1550646Y68314D01*
G01X1560694Y60604D01*
G01X1572394Y55757D01*
G01X1584951Y54104D01*
G01X1786609Y54104D01*
G01X2161104Y-320390D01*
G01X-51383Y-320390D01*
G01X-64222Y-311978D01*
G01X-78652Y-306744D01*
G01X-93899Y-304968D01*
G01X-109145Y-306744D01*
G01X-123575Y-311978D01*
G01X-136415Y-320390D01*
G01X-167668Y-320390D01*
G01X-171556Y-321164D01*
G01X-174852Y-323366D01*
G01X-182432Y-330946D01*
G01X-184635Y-334242D01*
G01X-185408Y-338130D01*
G01X-185408Y-349853D01*
G01X-193479Y-355462D01*
G01X-199722Y-363053D01*
G01X-203666Y-372055D01*
G01X-205014Y-381790D01*
G01X-205014Y-641044D01*
G01X-783463Y-641044D01*
G37*
G36*
G01X-709226Y1307875D02*
G01X-697452Y1303766D01*
G01X-685060Y1302372D01*
G01X-571405Y1302372D01*
G01X-576167Y1287402D01*
G01X-577274Y1271732D01*
G01X-579859Y1262904D01*
G01X-580731Y1253747D01*
G01X-580731Y1231341D01*
G01X-667760Y1231341D01*
G01X-678827Y1229588D01*
G01X-688811Y1224501D01*
G01X-696734Y1216578D01*
G01X-701821Y1206594D01*
G01X-703574Y1195527D01*
G01X-703574Y1164822D01*
G01X-714832Y1166029D01*
G01X-726131Y1165303D01*
G01X-726131Y1315556D01*
G01X-718185Y1310601D01*
G01X-709226Y1307875D01*
G37*
G36*
G01X38171Y598732D02*
G01X57845Y610924D01*
G01X75162Y626281D01*
G01X89621Y644355D01*
G01X100800Y664621D01*
G01X108376Y686492D01*
G01X112129Y709331D01*
G01X111949Y732476D01*
G01X107841Y755254D01*
G01X99925Y777004D01*
G01X88431Y797094D01*
G01X73693Y814940D01*
G01X56138Y830025D01*
G01X36277Y841910D01*
G01X14686Y850250D01*
G01X-8008Y854802D01*
G01X-31144Y855435D01*
G01X-54053Y852131D01*
G01X-76067Y844984D01*
G01X-96549Y834203D01*
G01X-114902Y820101D01*
G01X-130594Y803087D01*
G01X-143170Y783656D01*
G01X-152263Y762371D01*
G01X-157610Y739852D01*
G01X-159056Y716752D01*
G01X-156558Y693741D01*
G01X-169548Y698512D01*
G01X-183245Y700483D01*
G01X-197054Y699569D01*
G01X-210371Y695808D01*
G01X-210371Y761035D01*
G01X-195603Y759347D01*
G01X-180831Y760990D01*
G01X-166795Y765882D01*
G01X-154202Y773778D01*
G01X-143683Y784281D01*
G01X-135768Y796862D01*
G01X-130855Y810890D01*
G01X-129189Y825661D01*
G01X-130855Y840431D01*
G01X-135768Y854459D01*
G01X-143683Y867040D01*
G01X-154202Y877543D01*
G01X-166795Y885439D01*
G01X-180831Y890331D01*
G01X-195603Y891975D01*
G01X-210371Y890286D01*
G01X-210371Y1133591D01*
G01X-180604Y1163358D01*
G01X-154237Y1163358D01*
G01X-142471Y1153513D01*
G01X-128757Y1146634D01*
G01X-113830Y1143091D01*
G01X-98488Y1143073D01*
G01X-83553Y1146581D01*
G01X-69824Y1153427D01*
G01X-58035Y1163245D01*
G01X-48817Y1175510D01*
G01X-42665Y1189564D01*
G01X-39907Y1204656D01*
G01X-40691Y1219978D01*
G01X-44975Y1234709D01*
G01X-52529Y1248062D01*
G01X-62950Y1259322D01*
G01X-75680Y1267885D01*
G01X-90036Y1273295D01*
G01X-105251Y1275260D01*
G01X-120511Y1273676D01*
G01X-134999Y1268628D01*
G01X-147939Y1260386D01*
G01X-200699Y1260386D01*
G01X-213256Y1258733D01*
G01X-224956Y1253887D01*
G01X-235004Y1246177D01*
G01X-293190Y1187991D01*
G01X-300899Y1177943D01*
G01X-305746Y1166243D01*
G01X-307399Y1153686D01*
G01X-307399Y878493D01*
G01X-367397Y938491D01*
G01X-374213Y944161D01*
G01X-381946Y948496D01*
G01X-381946Y1195527D01*
G01X-383699Y1206594D01*
G01X-388786Y1216578D01*
G01X-396709Y1224501D01*
G01X-406693Y1229588D01*
G01X-417760Y1231341D01*
G01X-461059Y1231341D01*
G01X-452477Y1243811D01*
G01X-446946Y1257903D01*
G01X-444755Y1272881D01*
G01X-446018Y1287967D01*
G01X-450669Y1302372D01*
G01X-325060Y1302372D01*
G01X-313222Y1303642D01*
G01X-301924Y1307394D01*
G01X486952Y1307394D01*
G01X486952Y1262916D01*
G01X488705Y1251849D01*
G01X493792Y1241866D01*
G01X501715Y1233942D01*
G01X511699Y1228855D01*
G01X522766Y1227102D01*
G01X642824Y1227102D01*
G01X642918Y1198623D01*
G01X634634Y1193052D01*
G01X628210Y1185411D01*
G01X624145Y1176294D01*
G01X622753Y1166409D01*
G01X622753Y1076409D01*
G01X624184Y1066387D01*
G01X628362Y1057167D01*
G01X634953Y1049483D01*
G01X643430Y1043951D01*
G01X643914Y897933D01*
G01X644030Y894741D01*
G01X641701Y881880D01*
G01X610723Y850903D01*
G01X603013Y840855D01*
G01X598167Y829155D01*
G01X596514Y816598D01*
G01X596514Y780394D01*
G01X580551Y781600D01*
G01X564764Y778946D01*
G01X550073Y772587D01*
G01X537334Y762892D01*
G01X527290Y750427D01*
G01X520526Y735918D01*
G01X517435Y720210D01*
G01X518199Y704220D01*
G01X522772Y688879D01*
G01X530888Y675081D01*
G01X524181Y661471D01*
G01X520743Y646694D01*
G01X520754Y631522D01*
G01X524213Y616749D01*
G01X530940Y603149D01*
G01X540581Y591434D01*
G01X552633Y582217D01*
G01X566464Y575981D01*
G01X581351Y573051D01*
G01X596514Y573582D01*
G01X596514Y505609D01*
G01X594742Y492618D01*
G01X594742Y444237D01*
G01X596514Y431246D01*
G01X596514Y303187D01*
G01X581469Y303727D01*
G01X566689Y300860D01*
G01X552938Y294733D01*
G01X540922Y285662D01*
G01X517639Y285662D01*
G01X518192Y300537D01*
G01X515413Y315162D01*
G01X509442Y328798D01*
G01X500580Y340758D01*
G01X500580Y588791D01*
G01X498927Y601347D01*
G01X494080Y613048D01*
G01X486370Y623095D01*
G01X446553Y662913D01*
G01X460667Y668220D01*
G01X473218Y676578D01*
G01X483555Y687555D01*
G01X491146Y700584D01*
G01X495596Y714991D01*
G01X496677Y730031D01*
G01X494333Y744927D01*
G01X488684Y758907D01*
G01X480022Y771251D01*
G01X468797Y781318D01*
G01X455587Y788589D01*
G01X441076Y792688D01*
G01X426014Y793402D01*
G01X411180Y790696D01*
G01X397341Y784708D01*
G01X385212Y775749D01*
G01X316195Y775749D01*
G01X303638Y774096D01*
G01X291938Y769249D01*
G01X281890Y761539D01*
G01X279317Y758967D01*
G01X273340Y751699D01*
G01X268878Y743414D01*
G01X266100Y734424D01*
G01X251200Y735200D01*
G01X236503Y732625D01*
G01X222753Y726830D01*
G01X210648Y718107D01*
G01X200799Y706899D01*
G01X193705Y693772D01*
G01X189726Y679392D01*
G01X189062Y664486D01*
G01X191748Y649809D01*
G01X197647Y636104D01*
G01X145925Y584383D01*
G01X138216Y574335D01*
G01X133369Y562634D01*
G01X131716Y550078D01*
G01X131716Y444122D01*
G01X133369Y431566D01*
G01X138216Y419865D01*
G01X145925Y409817D01*
G01X187939Y367804D01*
G01X179760Y364338D01*
G01X113012Y431087D01*
G01X121228Y443201D01*
G01X126587Y456823D01*
G01X128827Y471288D01*
G01X127839Y485893D01*
G01X123671Y499925D01*
G01X116526Y512700D01*
G01X106752Y523597D01*
G01X94825Y532084D01*
G01X81328Y537748D01*
G01X66916Y540313D01*
G01X52293Y539653D01*
G01X38171Y535801D01*
G01X38171Y598732D01*
G37*
G36*
G01X-122269Y325503D02*
G01X-108234Y330007D01*
G01X-95541Y337500D01*
G01X-84817Y347611D01*
G01X-76591Y359842D01*
G01X-71270Y373588D01*
G01X-69117Y388169D01*
G01X-1227Y456059D01*
G01X4802Y441585D01*
G01X14060Y428931D01*
G01X14060Y412915D01*
G01X15713Y400358D01*
G01X20560Y388658D01*
G01X28270Y378610D01*
G01X112070Y294810D01*
G01X104747Y272801D01*
G01X101277Y249867D01*
G01X101759Y226677D01*
G01X106180Y203907D01*
G01X114412Y182222D01*
G01X126213Y162253D01*
G01X141240Y144584D01*
G01X159055Y129730D01*
G01X179137Y118123D01*
G01X200902Y110104D01*
G01X223713Y105904D01*
G01X246907Y105648D01*
G01X269806Y109342D01*
G01X291743Y116878D01*
G01X312077Y128038D01*
G01X330216Y142495D01*
G01X345630Y159827D01*
G01X357870Y179530D01*
G01X366579Y201028D01*
G01X371502Y223694D01*
G01X392353Y202843D01*
G01X402401Y195133D01*
G01X414102Y190287D01*
G01X426658Y188634D01*
G01X541923Y188634D01*
G01X553825Y179981D01*
G01X567342Y174166D01*
G01X581809Y171475D01*
G01X596514Y172041D01*
G01X596514Y145004D01*
G01X598167Y132447D01*
G01X603013Y120747D01*
G01X610723Y110699D01*
G01X662247Y59175D01*
G01X144059Y59175D01*
G01X-122269Y325503D01*
G37*
G36*
G01X693542Y579492D02*
G01X705412Y574479D01*
G01X718183Y572768D01*
G01X799803Y572768D01*
G01X794388Y562539D01*
G01X792518Y551116D01*
G01X792520Y441106D01*
G01X794273Y430040D01*
G01X799360Y420056D01*
G01X807283Y412133D01*
G01X817267Y407046D01*
G01X828334Y405293D01*
G01X853338Y405293D01*
G01X864976Y407237D01*
G01X875351Y412857D01*
G01X883337Y421544D01*
G01X891322Y412857D01*
G01X901697Y407237D01*
G01X913335Y405293D01*
G01X938339Y405293D01*
G01X949976Y407237D01*
G01X960350Y412855D01*
G01X968335Y421540D01*
G01X976321Y412855D01*
G01X986694Y407237D01*
G01X998331Y405293D01*
G01X1023332Y405293D01*
G01X1025409Y405354D01*
G01X1024846Y390465D01*
G01X1027620Y375827D01*
G01X1033592Y362178D01*
G01X1042461Y350206D01*
G01X1042461Y336501D01*
G01X1043897Y324783D01*
G01X1048122Y313758D01*
G01X1054884Y304081D01*
G01X1054884Y281762D01*
G01X1055099Y277842D01*
G01X1038945Y280559D01*
G01X1022617Y279233D01*
G01X1007113Y273946D01*
G01X993378Y265019D01*
G01X988079Y278355D01*
G01X980034Y290239D01*
G01X969622Y300115D01*
G01X957328Y307518D01*
G01X943730Y312104D01*
G01X929463Y313657D01*
G01X915197Y312104D01*
G01X901598Y307518D01*
G01X890273Y317143D01*
G01X877088Y324003D01*
G01X862707Y327755D01*
G01X847851Y328210D01*
G01X833267Y325344D01*
G01X819687Y319303D01*
G01X807794Y310389D01*
G01X798186Y299049D01*
G01X791343Y285855D01*
G01X787612Y271468D01*
G01X787178Y256612D01*
G01X790064Y242032D01*
G01X752066Y204034D01*
G01X738443Y203371D01*
G01X725243Y199934D01*
G01X713025Y193870D01*
G01X702307Y185434D01*
G01X693542Y174984D01*
G01X693542Y276047D01*
G01X707697Y268607D01*
G01X723221Y264772D01*
G01X739212Y264765D01*
G01X754740Y268586D01*
G01X768902Y276013D01*
G01X780874Y286614D01*
G01X789960Y299773D01*
G01X795632Y314725D01*
G01X797561Y330599D01*
G01X795632Y346473D01*
G01X789960Y361425D01*
G01X780874Y374584D01*
G01X768902Y385185D01*
G01X754740Y392612D01*
G01X739212Y396433D01*
G01X723221Y396426D01*
G01X707697Y392591D01*
G01X693542Y385151D01*
G01X693542Y402612D01*
G01X709545Y402584D01*
G01X725090Y406392D01*
G01X739269Y413813D01*
G01X751258Y424414D01*
G01X760358Y437579D01*
G01X766039Y452541D01*
G01X767970Y468428D01*
G01X766039Y484314D01*
G01X760358Y499276D01*
G01X751258Y512441D01*
G01X739269Y523043D01*
G01X725090Y530463D01*
G01X709545Y534271D01*
G01X693542Y534243D01*
G01X693542Y579492D01*
G37*
G36*
G01X908567Y1782915D02*
G01X907155Y1792872D01*
G01X903031Y1802044D01*
G01X896519Y1809707D01*
G01X1261000Y1809707D01*
G01X1254488Y1802044D01*
G01X1250364Y1792872D01*
G01X1248952Y1782915D01*
G01X1248952Y1759674D01*
G01X1208680Y1759674D01*
G01X1197613Y1757921D01*
G01X1187629Y1752834D01*
G01X1179706Y1744911D01*
G01X1174619Y1734927D01*
G01X1172866Y1723860D01*
G01X1172866Y1345420D01*
G01X1174619Y1334353D01*
G01X1179706Y1324369D01*
G01X1187629Y1316446D01*
G01X1197613Y1311359D01*
G01X1208680Y1309606D01*
G01X1248952Y1309606D01*
G01X1248952Y1262916D01*
G01X1250705Y1251849D01*
G01X1255792Y1241866D01*
G01X1263715Y1233942D01*
G01X1273699Y1228855D01*
G01X1284766Y1227102D01*
G01X1634753Y1227102D01*
G01X1645820Y1228855D01*
G01X1655804Y1233942D01*
G01X1663727Y1241866D01*
G01X1668814Y1251849D01*
G01X1670567Y1262916D01*
G01X1670567Y1309606D01*
G01X2213684Y1309606D01*
G01X2213684Y1271400D01*
G01X2186636Y1271400D01*
G01X2174079Y1269746D01*
G01X2162379Y1264900D01*
G01X2152331Y1257190D01*
G01X2052192Y1157051D01*
G01X1983295Y1157051D01*
G01X1972689Y1164999D01*
G01X1960715Y1170678D01*
G01X1947850Y1173863D01*
G01X1947850Y1236462D01*
G01X1946097Y1247529D01*
G01X1941010Y1257513D01*
G01X1933086Y1265436D01*
G01X1923103Y1270523D01*
G01X1912036Y1272276D01*
G01X1832036Y1272276D01*
G01X1820969Y1270523D01*
G01X1810985Y1265436D01*
G01X1803062Y1257513D01*
G01X1797975Y1247529D01*
G01X1796222Y1236462D01*
G01X1796222Y1146462D01*
G01X1797253Y1137931D01*
G01X1800286Y1129891D01*
G01X1805148Y1122804D01*
G01X1805148Y1056198D01*
G01X1806213Y1046088D01*
G01X1809362Y1036421D01*
G01X1814456Y1027623D01*
G01X1799418Y1022987D01*
G01X1785896Y1014937D01*
G01X1774651Y1003928D01*
G01X1766317Y990579D01*
G01X1761363Y975642D01*
G01X1760068Y959959D01*
G01X1762505Y944412D01*
G01X1768537Y929877D01*
G01X1777823Y917172D01*
G01X1777823Y777307D01*
G01X1766654Y778532D01*
G01X1755439Y777853D01*
G01X1747237Y778551D01*
G01X1652564Y778551D01*
G01X1640008Y776898D01*
G01X1628307Y772052D01*
G01X1618259Y764342D01*
G01X1443427Y589509D01*
G01X1440653Y598532D01*
G01X1436185Y606846D01*
G01X1430192Y614138D01*
G01X1386395Y657935D01*
G01X1376747Y665412D01*
G01X1365538Y670243D01*
G01X1365548Y671104D01*
G01X1365548Y691104D01*
G01X1363795Y702171D01*
G01X1358708Y712155D01*
G01X1350785Y720078D01*
G01X1340801Y725165D01*
G01X1329734Y726918D01*
G01X1219734Y726918D01*
G01X1210665Y725751D01*
G01X1202186Y722325D01*
G01X1194852Y716863D01*
G01X1189140Y709722D01*
G01X1189140Y801103D01*
G01X1187387Y812170D01*
G01X1182300Y822154D01*
G01X1174377Y830077D01*
G01X1164393Y835164D01*
G01X1153326Y836917D01*
G01X1128325Y836917D01*
G01X1117870Y835357D01*
G01X1108326Y830813D01*
G01X1098782Y835357D01*
G01X1088327Y836917D01*
G01X1063326Y836917D01*
G01X1057836Y836494D01*
G01X1057836Y842932D01*
G01X1057743Y845518D01*
G01X1057743Y912311D01*
G01X1120620Y912311D01*
G01X1131687Y914063D01*
G01X1141671Y919150D01*
G01X1149594Y927074D01*
G01X1154681Y937057D01*
G01X1156434Y948125D01*
G01X1156434Y1038124D01*
G01X1156214Y1042092D01*
G01X1156214Y1055680D01*
G01X1290046Y1055680D01*
G01X1290046Y928820D01*
G01X1291799Y917753D01*
G01X1296886Y907769D01*
G01X1304809Y899846D01*
G01X1314793Y894759D01*
G01X1325860Y893006D01*
G01X1399276Y893006D01*
G01X1399276Y757938D01*
G01X1401029Y746870D01*
G01X1406116Y736887D01*
G01X1414039Y728963D01*
G01X1424023Y723876D01*
G01X1435090Y722124D01*
G01X1540091Y722124D01*
G01X1551159Y723876D01*
G01X1561142Y728963D01*
G01X1569066Y736887D01*
G01X1574153Y746870D01*
G01X1575905Y757938D01*
G01X1575905Y1004437D01*
G01X1574760Y1013422D01*
G01X1571397Y1021833D01*
G01X1579187Y1027483D01*
G01X1585191Y1035003D01*
G01X1588976Y1043850D01*
G01X1590269Y1053386D01*
G01X1590269Y1143386D01*
G01X1588516Y1154453D01*
G01X1583429Y1164437D01*
G01X1575506Y1172360D01*
G01X1565522Y1177447D01*
G01X1554455Y1179200D01*
G01X1474455Y1179200D01*
G01X1464796Y1177873D01*
G01X1455854Y1173990D01*
G01X1448289Y1167840D01*
G01X1442774Y1176397D01*
G01X1435074Y1183056D01*
G01X1425811Y1187280D01*
G01X1415734Y1188727D01*
G01X953383Y1188727D01*
G01X943338Y1187289D01*
G01X934099Y1183092D01*
G01X926409Y1176472D01*
G01X921432Y1169334D01*
G01X918323Y1161207D01*
G01X917266Y1152570D01*
G01X917266Y1073970D01*
G01X807603Y1073970D01*
G01X796536Y1072217D01*
G01X786552Y1067130D01*
G01X778629Y1059207D01*
G01X773542Y1049223D01*
G01X771789Y1038156D01*
G01X771789Y948364D01*
G01X773199Y938414D01*
G01X777318Y929248D01*
G01X783820Y921587D01*
G01X792196Y916033D01*
G01X801784Y913026D01*
G01X801784Y825146D01*
G01X796743Y817980D01*
G01X793592Y809805D01*
G01X792520Y801109D01*
G01X792520Y754985D01*
G01X780563Y762914D01*
G01X767180Y768085D01*
G01X752998Y770257D01*
G01X738682Y769328D01*
G01X738682Y851062D01*
G01X740509Y858563D01*
G01X741123Y866258D01*
G01X741123Y904420D01*
G01X740906Y909000D01*
G01X740470Y1040645D01*
G01X751072Y1042849D01*
G01X760531Y1048121D01*
G01X767982Y1055979D01*
G01X772744Y1065704D01*
G01X774381Y1076409D01*
G01X774381Y1166409D01*
G01X772712Y1177215D01*
G01X767860Y1187015D01*
G01X760277Y1194893D01*
G01X750670Y1200116D01*
G01X739935Y1202197D01*
G01X739926Y1204942D01*
G01X749333Y1210908D01*
G01X757609Y1218365D01*
G01X764520Y1227102D01*
G01X872753Y1227102D01*
G01X883820Y1228855D01*
G01X893804Y1233942D01*
G01X901727Y1241866D01*
G01X906814Y1251849D01*
G01X908567Y1262916D01*
G01X908567Y1307394D01*
G01X951942Y1307394D01*
G01X963009Y1309146D01*
G01X972992Y1314233D01*
G01X980916Y1322157D01*
G01X986003Y1332140D01*
G01X987756Y1343208D01*
G01X987756Y1727489D01*
G01X986003Y1738556D01*
G01X980916Y1748540D01*
G01X972992Y1756463D01*
G01X963009Y1761550D01*
G01X951942Y1763303D01*
G01X908567Y1763303D01*
G01X908567Y1782915D01*
G37*
G36*
G01X1088339Y545298D02*
G01X1092511Y545298D01*
G01X1092511Y461712D01*
G01X1080971Y460971D01*
G01X1069736Y458237D01*
G01X1059146Y453592D01*
G01X1059144Y551108D01*
G01X1058415Y558294D01*
G01X1056260Y565187D01*
G01X1061850Y557008D01*
G01X1069467Y550674D01*
G01X1078527Y546668D01*
G01X1088339Y545298D01*
G37*
G36*
G01X2213684Y316058D02*
G01X2213684Y-235752D01*
G01X1841009Y136923D01*
G01X1830962Y144632D01*
G01X1819261Y149479D01*
G01X1806705Y151132D01*
G01X1605046Y151132D01*
G01X1561202Y194976D01*
G01X1561202Y412323D01*
G01X1727776Y412323D01*
G01X1740183Y413936D01*
G01X1751765Y418669D01*
G01X1761751Y426207D01*
G01X1775556Y428365D01*
G01X1788602Y433367D01*
G01X1800311Y440992D01*
G01X1810161Y450901D01*
G01X1817718Y462654D01*
G01X1822643Y475729D01*
G01X1836240Y462132D01*
G01X1846287Y454423D01*
G01X1857988Y449576D01*
G01X1870544Y447923D01*
G01X1886370Y447923D01*
G01X2004025Y330268D01*
G01X2010964Y324513D01*
G01X2018847Y320142D01*
G01X2008842Y318471D01*
G01X1999706Y314061D01*
G01X1992173Y307266D01*
G01X1986848Y298632D01*
G01X1984158Y288851D01*
G01X1971622Y297565D01*
G01X1957426Y303182D01*
G01X1942322Y305404D01*
G01X1927110Y304113D01*
G01X1912596Y299377D01*
G01X1899550Y291447D01*
G01X1888664Y280744D01*
G01X1880513Y267835D01*
G01X1875530Y253404D01*
G01X1873980Y238217D01*
G01X1875944Y223077D01*
G01X1881319Y208787D01*
G01X1889818Y196105D01*
G01X1900993Y185703D01*
G01X1914251Y178133D01*
G01X1928888Y173794D01*
G01X1944130Y172919D01*
G01X1959168Y175552D01*
G01X1973205Y181554D01*
G01X1985498Y190607D01*
G01X1986609Y190607D01*
G01X1992015Y181602D01*
G01X1999800Y174552D01*
G01X2009296Y170064D01*
G01X2019686Y168524D01*
G01X2109686Y168524D01*
G01X2120753Y170277D01*
G01X2130737Y175364D01*
G01X2138660Y183287D01*
G01X2143747Y193271D01*
G01X2145500Y204338D01*
G01X2145500Y284338D01*
G01X2144183Y293960D01*
G01X2140330Y302874D01*
G01X2134224Y310425D01*
G01X2126313Y316058D01*
G01X2213684Y316058D01*
G37*
G36*
G01X2213684Y1001623D02*
G01X2213684Y462242D01*
G01X2090940Y462242D01*
G01X1996826Y556356D01*
G01X2011618Y561591D01*
G01X2024766Y570155D01*
G01X2035534Y581569D01*
G01X2043319Y595194D01*
G01X2047684Y610266D01*
G01X2048386Y625942D01*
G01X2045385Y641344D01*
G01X2038849Y655609D01*
G01X2029144Y667940D01*
G01X2016813Y677645D01*
G01X2002548Y684181D01*
G01X1987146Y687182D01*
G01X1971470Y686480D01*
G01X1956398Y682115D01*
G01X1942773Y674330D01*
G01X1931359Y663562D01*
G01X1922795Y650414D01*
G01X1917560Y635622D01*
G01X1908498Y644683D01*
G01X1908498Y681177D01*
G01X1916248Y693653D01*
G01X1921062Y707529D01*
G01X1922703Y722124D01*
G01X2000085Y722124D01*
G01X2011153Y723876D01*
G01X2021136Y728963D01*
G01X2029060Y736887D01*
G01X2034147Y746870D01*
G01X2035899Y757938D01*
G01X2035899Y818161D01*
G01X2040250Y822019D01*
G01X2141440Y923210D01*
G01X2156664Y923688D01*
G01X2171377Y927628D01*
G01X2184803Y934820D01*
G01X2196233Y944886D01*
G01X2205066Y957294D01*
G01X2210835Y971391D01*
G01X2213235Y986431D01*
G01X2212140Y1001623D01*
G01X2213684Y1001623D01*
G37*
G54D10*
G01X2650211Y1627449D02*
G01X2777476Y1627449D01*
G03X2800330Y1619209I22854J27574D01*
G01X3251914Y1619209D01*
G01X3251914Y1073304D01*
G01X2822766Y1074273D01*
G01X2822766Y1156457D01*
G03X2812606Y1166617I-10160J0D01*
G01X2650211Y1166617D01*
G01X2650211Y1627449D01*
G01X2707177Y921446D02*
G01X2785253Y921481D01*
G03X2793055Y920620I7802J34954D01*
G01X3252504Y920620D01*
G01X3252504Y368813D01*
G01X2822750Y368813D01*
G01X2822750Y452589D01*
G03X2812590Y462749I-10160J0D01*
G01X2650196Y462749D01*
G01X2650196Y921446D01*
G01X2707177Y921446D01*
G01X2587689Y290791D02*
G01X2587689Y-275498D01*
G01X2279585Y-275498D01*
G01X2279585Y290791D01*
G01X2587689Y290791D01*
G01X2279585Y999763D02*
G01X2587689Y999763D01*
G01X2587689Y462242D01*
G01X2279585Y462242D01*
G01X2279585Y999763D01*
G01X2587689Y1809707D02*
G01X2587689Y1271400D01*
G01X2279585Y1271400D01*
G01X2279585Y1809707D01*
G01X2587689Y1809707D01*
G01X2712490Y1627422D02*
G01X2777509Y1627422D01*
G03X2800330Y1619209I22822J27601D01*
G01X3251914Y1619209D01*
G01X3251914Y1073304D01*
G01X2821767Y1074276D01*
G01X2821767Y1156377D01*
G03X2811607Y1166537I-10160J0D01*
G01X2649212Y1166537D01*
G01X2649212Y1625235D01*
G01X2706193Y1625235D01*
G03X2712490Y1627422I0J10160D01*
G01X2650283Y921624D02*
G01X2784636Y921624D01*
G03X2793055Y920620I8419J34810D01*
G01X3252504Y920620D01*
G01X3252504Y368813D01*
G01X2822837Y368813D01*
G01X2822837Y452766D01*
G03X2812677Y462926I-10160J0D01*
G01X2650283Y462926D01*
G01X2650283Y921624D01*
G01X1218840Y1355580D02*
G01X1218840Y1713700D01*
G01X2588034Y1713700D01*
G01X2588034Y1355580D01*
G01X1218840Y1355580D01*
G01X-693211Y1353368D02*
G01X-693211Y1717329D01*
G01X941782Y1717329D01*
G01X941782Y1353368D01*
G01X-693211Y1353368D01*
G01X1670567Y1782915D02*
G03X1658519Y1809707I-35814J0D01*
G01X2222559Y1809707D01*
G01X2222559Y1759674D01*
G01X1670567Y1759674D01*
G01X1670567Y1782915D01*
G01X-159040Y-391950D02*
G01X-156910Y-391950D01*
G03X-30888Y-391950I63011J20668D01*
G01X2585830Y-391950D01*
G01X2585830Y-641266D01*
G01X-159040Y-641266D01*
G01X-159040Y-391950D01*
G01X2706221Y220368D02*
G01X2780064Y220400D01*
G03X2799046Y214956I18982J30370D01*
G01X3254148Y214956D01*
G01X3254148Y-321179D01*
G01X2847437Y-321179D01*
G03X2821795Y-331991I0J-35814D01*
G01X2821795Y-248490D01*
G03X2811635Y-238330I-10160J0D01*
G01X2648228Y-238330D01*
G01X2648228Y220368D01*
G01X2706221Y220368D01*
G01X995091Y-278354D02*
G01X995091Y-20346D01*
G01X1007434Y-8003D01*
G01X1782703Y-8003D01*
G01X1782703Y-278354D01*
G01X995091Y-278354D01*
G01X168879Y-324410D02*
G01X168879Y-124678D01*
G01X870664Y-124678D01*
G03X904968Y-110469I0J48514D01*
G01X995904Y-19533D01*
G01X1860247Y-19533D01*
G01X1991360Y-150647D01*
G01X1991360Y-324410D01*
G01X168879Y-324410D01*
G01X1254640Y732950D02*
G01X1254640Y754550D01*
G01X1330811Y754550D01*
G01X1330811Y732950D01*
G01X1254640Y732950D01*
G01X1192940Y731790D02*
G01X1192940Y1020290D01*
G01X1280430Y1020290D01*
G01X1280430Y731790D01*
G01X1192940Y731790D01*
G01X1110240Y1142410D02*
G01X1110240Y1073938D01*
G01X1040620Y1073938D01*
G03X1004806Y1038124I0J-35814D01*
G01X1004806Y959470D01*
G01X963240Y959470D01*
G01X963240Y1142410D01*
G01X1110240Y1142410D01*
G01X-747870Y-142400D02*
G01X-525464Y-142400D01*
G03X-407127Y-142400I59168J29944D01*
G01X-255270Y-142400D01*
G01X-255270Y-629940D01*
G01X-747870Y-629940D01*
G01X-747870Y-142400D01*
G01X-783463Y-641044D02*
G01X-783463Y591300D01*
G01X-773562Y581399D01*
G03X-703574Y517525I66273J2336D01*
G01X-703574Y297046D01*
G03X-667760Y261232I35814J0D01*
G01X-417760Y261232D01*
G03X-381946Y297046I0J35814D01*
G01X-381946Y504162D01*
G01X-307399Y578709D01*
G01X-307399Y393510D01*
G03X-293190Y359205I48514J0D01*
G01X-97366Y163382D01*
G03X-143712Y50179I546J-66312D01*
G03X-30509Y96525I46891J46891D01*
G01X89659Y-23643D01*
G03X94201Y-27650I34305J34305D01*
G01X74274Y-27650D01*
G03X-37250Y-76164I-45210J-48514D01*
G03X74274Y-124678I66314J0D01*
G01X870664Y-124678D01*
G03X904968Y-110469I0J48514D01*
G01X1031667Y16230D01*
G03X1045876Y50534I-34305J34305D01*
G01X1045876Y98915D01*
G03X1031667Y133219I-48514J0D01*
G01X1012581Y152305D01*
G03X1094385Y245948I23525J62001D01*
G01X1147263Y245948D01*
G03X1154640Y246716I0J35814D01*
G01X1154640Y143160D01*
G03X1142973Y116711I24148J-26449D01*
G01X1142973Y62711D01*
G03X1178787Y26897I35814J0D01*
G01X1235353Y26897D01*
G03X1271167Y62711I0J35814D01*
G01X1271167Y116711D01*
G03X1251668Y148593I-35814J0D01*
G01X1251668Y250708D01*
G03X1269641Y281762I-17841J31054D01*
G01X1269641Y335763D01*
G03X1255261Y364454I-35814J0D01*
G01X1255261Y455306D01*
G01X1309004Y455306D01*
G01X1309004Y320365D01*
G03X1323214Y286060I48514J0D01*
G01X1366640Y242634D01*
G03X1371834Y228101I35530J4505D01*
G03X1363614Y116906I31703J-58245D01*
G03X1468257Y155401I39923J52950D01*
G03X1478383Y140576I44431J19480D01*
G01X1550646Y68314D01*
G03X1584951Y54104I34305J34305D01*
G01X1786609Y54104D01*
G01X2161104Y-320390D01*
G01X-51383Y-320390D01*
G03X-93899Y-304968I-42516J-50891D01*
G03X-136415Y-320390I0J-66314D01*
G01X-167668Y-320390D01*
G03X-174852Y-323366I0J-10160D01*
G01X-182432Y-330946D01*
G03X-185408Y-338130I7184J-7184D01*
G01X-185408Y-349853D01*
G03X-205014Y-381790I16208J-31937D01*
G01X-205014Y-641044D01*
G01X-783463Y-641044D01*
G01X-532609Y-112456D02*
G03X-399981Y-112456I66314J0D01*
G03X-532609Y-112456I-66314J0D01*
G01X-225307Y-103695D02*
G03X-92679Y-103695I66314J0D01*
G03X-225307Y-103695I-66314J0D01*
G01X-709226Y1307875D02*
G03X-685060Y1302372I24166J50311D01*
G01X-571405Y1302372D01*
G03X-577274Y1271732I60368J-27445D01*
G03X-580731Y1253747I45057J-17985D01*
G01X-580731Y1231341D01*
G01X-667760Y1231341D01*
G03X-703574Y1195527I0J-35814D01*
G01X-703574Y1164822D01*
G03X-726131Y1165303I-12671J-65092D01*
G01X-726131Y1315556D01*
G03X-709226Y1307875I22760J27652D01*
G01X38171Y598732D02*
G03X36277Y841910I-61448J121118D01*
G03X-156558Y693741I-59554J-122061D01*
G03X-210371Y695808I-29233J-59523D01*
G01X-210371Y761035D01*
G03X-129189Y825661I14868J64626D01*
G03X-210371Y890286I-66314J0D01*
G01X-210371Y1133591D01*
G01X-180604Y1163358D01*
G01X-154237Y1163358D01*
G03X-39907Y1204656I48154J45593D01*
G03X-147939Y1260386I-66175J4295D01*
G01X-200699Y1260386D01*
G03X-235004Y1246177I0J-48514D01*
G01X-293190Y1187991D01*
G03X-307399Y1153686I34305J-34305D01*
G01X-307399Y878493D01*
G01X-367397Y938491D01*
G03X-381946Y948496I-34305J-34305D01*
G01X-381946Y1195527D01*
G03X-417760Y1231341I-35814J0D01*
G01X-461059Y1231341D01*
G03X-450669Y1302372I-49978J43586D01*
G01X-325060Y1302372D01*
G03X-301924Y1307394I0J55814D01*
G01X486952Y1307394D01*
G01X486952Y1262916D01*
G03X522766Y1227102I35814J0D01*
G01X642824Y1227102D01*
G01X642918Y1198623D01*
G03X622753Y1166409I15649J-32214D01*
G01X622753Y1076409D01*
G03X643430Y1043951I35814J0D01*
G01X643914Y897933D01*
G03X644030Y894741I48514J161D01*
G03X641701Y881880I46138J-14998D01*
G01X610723Y850903D01*
G03X596514Y816598I34305J-34305D01*
G01X596514Y780394D01*
G03X527290Y750427I-12942J-65039D01*
G03X530888Y675081I56281J-35071D01*
G03X530940Y603149I55740J-35926D01*
G03X596514Y573582I55688J36006D01*
G01X596514Y505609D01*
G03X594742Y492618I46742J-12992D01*
G01X594742Y444237D01*
G03X596514Y431246I48514J0D01*
G01X596514Y303187D01*
G03X540922Y285662I-9886J-65573D01*
G01X517639Y285662D01*
G03X500580Y340758I-65573J9886D01*
G01X500580Y588791D01*
G03X486370Y623095I-48514J0D01*
G01X446553Y662913D01*
G03X488684Y758907I-16131J64322D01*
G03X385212Y775749I-58261J-31673D01*
G01X316195Y775749D01*
G03X281890Y761539I0J-48514D01*
G01X279317Y758967D01*
G03X266100Y734424I34305J-34305D01*
G03X197647Y636104I-10878J-65416D01*
G01X145925Y584383D01*
G03X131716Y550078I34305J-34305D01*
G01X131716Y444122D01*
G03X145925Y409817I48514J0D01*
G01X187939Y367804D01*
G03X179760Y364338I48867J-126718D01*
G01X113012Y431087D01*
G03X116526Y512700I-50437J43054D01*
G03X38171Y535801I-53951J-38559D01*
G01X38171Y598732D01*
G01X-122269Y325503D02*
G03X-69117Y388169I-13121J65003D01*
G01X-1227Y456059D01*
G03X14060Y428931I63801J18081D01*
G01X14060Y412915D01*
G03X28270Y378610I48514J0D01*
G01X112070Y294810D01*
G03X200902Y110104I124736J-53724D01*
G03X371502Y223694I35905J130982D01*
G01X392353Y202843D01*
G03X426658Y188634I34305J34305D01*
G01X541923Y188634D01*
G03X596514Y172041I44705J48980D01*
G01X596514Y145004D01*
G03X610723Y110699I48514J0D01*
G01X662247Y59175D01*
G01X144059Y59175D01*
G01X-122269Y325503D01*
G01X693542Y579492D02*
G03X718183Y572768I24642J41790D01*
G01X799803Y572768D01*
G03X792518Y551116I28529J-21651D01*
G01X792520Y441106D01*
G03X828334Y405293I35814J1D01*
G01X853338Y405293D01*
G03X883337Y421544I0J35814D01*
G03X913335Y405293I29999J19563D01*
G01X938339Y405293D01*
G03X968335Y421540I0J35814D01*
G03X998331Y405293I29996J19567D01*
G01X1023332Y405293D01*
G01X1025409Y405354D01*
G03X1042461Y350206I65565J-9938D01*
G01X1042461Y336501D01*
G03X1054884Y304081I48514J0D01*
G01X1054884Y281762D01*
G03X1055099Y277842I35814J0D01*
G03X993378Y265019I-18992J-63536D01*
G03X957328Y307518I-63915J-17676D01*
G03X901598Y307518I-27865J-60176D01*
G03X819687Y319303I-48335J-45401D01*
G03X790064Y242032I33576J-57186D01*
G01X752066Y204034D01*
G03X693542Y174984I-3604J-66216D01*
G01X693542Y276047D01*
G03X797561Y330599I37705J54552D01*
G03X693542Y385151I-66314J0D01*
G01X693542Y402612D01*
G03X767970Y468428I8114J65816D01*
G03X693542Y534243I-66314J0D01*
G01X693542Y579492D01*
G01X908567Y1782915D02*
G03X896519Y1809707I-35814J0D01*
G01X1261000Y1809707D01*
G03X1248952Y1782915I23767J-26792D01*
G01X1248952Y1759674D01*
G01X1208680Y1759674D01*
G03X1172866Y1723860I0J-35814D01*
G01X1172866Y1345420D01*
G03X1208680Y1309606I35814J0D01*
G01X1248952Y1309606D01*
G01X1248952Y1262916D01*
G03X1284766Y1227102I35814J0D01*
G01X1634753Y1227102D01*
G03X1670567Y1262916I0J35814D01*
G01X1670567Y1309606D01*
G01X2213684Y1309606D01*
G01X2213684Y1271400D01*
G01X2186636Y1271400D01*
G03X2152331Y1257190I0J-48514D01*
G01X2052192Y1157051D01*
G01X1983295Y1157051D01*
G03X1947850Y1173863I-44870J-48829D01*
G01X1947850Y1236462D01*
G03X1912036Y1272276I-35814J0D01*
G01X1832036Y1272276D01*
G03X1796222Y1236462I0J-35814D01*
G01X1796222Y1146462D01*
G03X1805148Y1122804I35814J0D01*
G01X1805148Y1056198D01*
G03X1814456Y1027623I48514J0D01*
G03X1777823Y917172I11881J-65241D01*
G01X1777823Y777307D01*
G03X1755439Y777853I-12787J-65070D01*
G03X1747237Y778551I-8202J-47816D01*
G01X1652564Y778551D01*
G03X1618259Y764342I0J-48514D01*
G01X1443427Y589509D01*
G03X1430192Y614138I-47539J-9676D01*
G01X1386395Y657935D01*
G03X1365538Y670243I-34305J-34305D01*
G01X1365548Y671104D01*
G01X1365548Y691104D01*
G03X1329734Y726918I-35814J0D01*
G01X1219734Y726918D01*
G03X1189140Y709722I0J-35814D01*
G01X1189140Y801103D01*
G03X1153326Y836917I-35814J0D01*
G01X1128325Y836917D01*
G03X1108326Y830813I0J-35814D01*
G03X1088327Y836917I-19999J-29710D01*
G01X1063326Y836917D01*
G03X1057836Y836494I0J-35814D01*
G01X1057836Y842932D01*
G03X1057743Y845518I-35814J0D01*
G01X1057743Y912311D01*
G01X1120620Y912311D01*
G03X1156434Y948125I0J35814D01*
G01X1156434Y1038124D01*
G03X1156214Y1042092I-35814J0D01*
G01X1156214Y1055680D01*
G01X1290046Y1055680D01*
G01X1290046Y928820D01*
G03X1325860Y893006I35814J0D01*
G01X1399276Y893006D01*
G01X1399276Y757938D01*
G03X1435090Y722124I35814J0D01*
G01X1540091Y722124D01*
G03X1575905Y757938I0J35814D01*
G01X1575905Y1004437D01*
G03X1571397Y1021833I-35814J0D01*
G03X1590269Y1053386I-16942J31553D01*
G01X1590269Y1143386D01*
G03X1554455Y1179200I-35814J0D01*
G01X1474455Y1179200D01*
G03X1448289Y1167840I0J-35814D01*
G03X1415734Y1188727I-32555J-14927D01*
G01X953383Y1188727D01*
G03X926409Y1176472I0J-35814D01*
G03X917266Y1152570I26671J-23902D01*
G01X917266Y1073970D01*
G01X807603Y1073970D01*
G03X771789Y1038156I0J-35814D01*
G01X771789Y948364D01*
G03X801784Y913026I35814J0D01*
G01X801784Y825146D01*
G03X792520Y801109I26550J-24036D01*
G01X792520Y754985D01*
G03X767180Y768085I-42410J-50980D01*
G03X738682Y769328I-17070J-64079D01*
G01X738682Y851062D01*
G03X741123Y866258I-46073J15196D01*
G01X741123Y904420D01*
G03X740906Y909000I-48514J0D01*
G01X740470Y1040645D01*
G03X774381Y1076409I-1903J35763D01*
G01X774381Y1166409D01*
G03X739935Y1202197I-35814J0D01*
G01X739926Y1204942D01*
G03X764520Y1227102I-30688J58786D01*
G01X872753Y1227102D01*
G03X908567Y1262916I0J35814D01*
G01X908567Y1307394D01*
G01X951942Y1307394D01*
G03X987756Y1343208I0J35814D01*
G01X987756Y1727489D01*
G03X951942Y1763303I-35814J0D01*
G01X908567Y1763303D01*
G01X908567Y1782915D01*
G01X1053510Y572768D02*
G03X1055408Y567032I34828J8344D01*
G03X1051851Y572768I-32079J-15925D01*
G01X1053510Y572768D01*
G01X1088339Y545298D02*
G01X1092511Y545298D01*
G01X1092511Y461712D01*
G03X1059146Y453592I-1536J-66296D01*
G01X1059144Y551108D01*
G03X1056260Y565187I-35814J-1D01*
G03X1088339Y545298I32079J15925D01*
G01X2213684Y316058D02*
G01X2213684Y-235752D01*
G01X1841009Y136923D01*
G03X1806705Y151132I-34305J-34305D01*
G01X1605046Y151132D01*
G01X1561202Y194976D01*
G01X1561202Y412323D01*
G01X1727776Y412323D01*
G03X1761751Y426207I0J48514D01*
G03X1822643Y475729I-3282J66233D01*
G01X1836240Y462132D01*
G03X1870544Y447923I34305J34305D01*
G01X1886370Y447923D01*
G01X2004025Y330268D01*
G03X2018847Y320142I34305J34305D01*
G03X1984158Y288851I839J-35804D01*
G03X1873980Y238217I-43870J-49729D01*
G03X1985498Y190607I66308J905D01*
G01X1986609Y190607D01*
G03X2019686Y168524I33077J13731D01*
G01X2109686Y168524D01*
G03X2145500Y204338I0J35814D01*
G01X2145500Y284338D01*
G03X2126313Y316058I-35814J0D01*
G01X2213684Y316058D01*
G01X2213684Y1001623D02*
G01X2213684Y462242D01*
G01X2090940Y462242D01*
G01X1996826Y556356D01*
G03X2029144Y667940I-14573J64693D01*
G03X1917560Y635622I-46891J-46891D01*
G01X1908498Y644683D01*
G01X1908498Y681177D01*
G03X1922703Y722124I-52110J41014D01*
G01X2000085Y722124D01*
G03X2035899Y757938I0J35814D01*
G01X2035899Y818161D01*
G03X2040250Y822019I-29954J38162D01*
G01X2141440Y923210D01*
G03X2212140Y1001623I5542J66082D01*
G01X2213684Y1001623D01*
G54D11*
G01X1080620Y1037870D02*
G01X1080620Y1063778D01*
G01X1040874Y993125D02*
G01X1014966Y993125D01*
G04 Copper End*

G04 PolygonModel Start*
G01X692428Y898094D02*
G01X689687Y1725476D01*
G01X688689Y1723978D01*

G04 Rect Start*
G36*
G01X838412Y734206D02*
G01X838412Y842932D01*
G01X1022022Y842932D01*
G01X1022022Y734206D01*
G01X838412Y734206D01*
G37*
G36*
G01X807863Y971379D02*
G01X807863Y1026702D01*
G01X1088666Y1026702D01*
G01X1088666Y971379D01*
G01X807863Y971379D01*
G37*
G36*
G01X837598Y814743D02*
G01X837598Y1004834D01*
G01X1021929Y1004834D01*
G01X1021929Y814743D01*
G01X837598Y814743D01*
G37*
G36*
G01X979086Y948391D02*
G01X979086Y990634D01*
G01X1065971Y990634D01*
G01X1065971Y948391D01*
G01X979086Y948391D01*
G37*
G36*
G01X807603Y948364D02*
G01X807603Y1038156D01*
G01X1043337Y1038156D01*
G01X1043337Y948364D01*
G01X807603Y948364D01*
G37*
G36*
G01X953383Y1091494D02*
G01X953383Y1152913D01*
G01X1415734Y1152913D01*
G01X1415734Y1091494D01*
G01X953383Y1091494D01*
G37*
G36*
G01X1325860Y928820D02*
G01X1325860Y1121970D01*
G01X1416450Y1121970D01*
G01X1416450Y928820D01*
G01X1325860Y928820D01*
G37*
G36*
G01X1380520Y928820D02*
G01X1380520Y1002940D01*
G01X1538480Y1002940D01*
G01X1538480Y928820D01*
G01X1380520Y928820D01*
G37*
G36*
G01X-155310Y952234D02*
G01X-155310Y1147070D01*
G01X255700Y1147070D01*
G01X255700Y952234D01*
G01X-155310Y952234D01*
G37*
G36*
G01X152010Y859730D02*
G01X152010Y1226100D01*
G01X351620Y1226100D01*
G01X351620Y859730D01*
G01X152010Y859730D01*
G37*
G36*
G01X-139260Y-316300D02*
G01X-139260Y-154590D01*
G01X323410Y-154590D01*
G01X323410Y-316300D01*
G01X-139260Y-316300D01*
G37*
G04 Rect End*

G04 Pad Start*
G54D12*
G01X1274734Y681104D03*
G01X1274734Y621110D03*
G54D13*
G01X1289618Y741099D03*
G54D12*
G01X1274734Y561115D03*
G54D13*
G01X1289618Y501120D03*
G54D14*
G01X1205824Y481105D03*
G54D15*
G01X1205824Y766118D03*
G54D16*
G01X1140825Y746103D03*
G01X1140825Y496116D03*
G01X1075827Y746103D03*
G01X1075827Y496116D03*
G54D18*
G01X1108339Y591112D03*
G01X1108339Y651107D03*
G54D19*
G01X925833Y746103D03*
G54D20*
G01X925832Y496114D03*
G54D21*
G01X1118980Y308762D03*
G01X1205544Y308762D03*
G54D22*
G01X1080620Y993125D03*
G01X1220625Y993125D03*
G54D23*
G01X697760Y1522916D03*
G01X1459760Y1522916D03*
G54D22*
G01X698567Y1121409D03*
G01X838572Y1121409D03*
G54D24*
G01X1429169Y361985D03*
G01X1429169Y275422D03*
G54D25*
G01X3026870Y-63697D03*
G01X3026870Y1352907D03*
G01X3026870Y631422D03*
G54D26*
G01X-8261Y-538504D03*
G01X-8261Y-235025D03*
G01X378824Y-530441D03*
G01X378824Y-226961D03*
G01X742496Y-530441D03*
G01X742496Y-226961D03*
G01X1110632Y-530441D03*
G01X1110632Y-226961D03*
G01X1478768Y-525976D03*
G01X1478768Y-222497D03*
G01X1833511Y-530441D03*
G01X1833511Y-226961D03*
G54D27*
G01X-542760Y97375D03*
G01X-542760Y749805D03*
G54D28*
G01X-23277Y719849D03*
G54D27*
G01X-542760Y422046D03*
G54D28*
G01X236806Y241086D03*
G01X308130Y497100D03*
G54D27*
G01X-542760Y1070527D03*
G54D29*
G01X252566Y1488874D03*
G01X252566Y1048895D03*
G01X-123952Y1489142D03*
G01X-123952Y1049163D03*
G54D22*
G01X1872036Y1191462D03*
G01X2012040Y1191462D03*
G54D21*
G01X1207070Y89711D03*
G01X1120507Y89711D03*
G54D30*
G01X1487591Y881187D03*
G01X1717588Y881187D03*
G01X1947585Y881187D03*
G54D31*
G01X1717588Y309687D03*
G54D32*
G01X-505060Y1538186D03*
G01X-505060Y-379070D03*
G54D22*
G01X1514455Y1098386D03*
G01X1654460Y1098386D03*
G54D33*
G01X2064686Y244338D03*
G01X2064686Y104333D03*
G04 Pad End*

G04 Via Start*
G54D34*
G01X-185791Y634218D03*
G01X-195503Y825661D03*
G01X-106082Y1208951D03*
G01X62574Y474141D03*
G01X84365Y1785021D03*
G01X255222Y669008D03*
G01X452066Y295548D03*
G01X586627Y237614D03*
G01X372022Y668835D03*
G01X701656Y468428D03*
G01X731246Y330599D03*
G01X748462Y137818D03*
G01X839464Y998494D03*
G01X853263Y262117D03*
G01X938962Y74725D03*
G01X929463Y247343D03*
G01X1403537Y169856D03*
G01X1472505Y501850D03*
G01X1758469Y492440D03*
G01X1765037Y712237D03*
G01X1819522Y548922D03*
G01X2018514Y1050137D03*
G01X430422Y727235D03*
G01X2732708Y1003410D03*
G01X1938426Y1108222D03*
G01X2790730Y1222886D03*
G01X1856389Y722191D03*
G01X2804288Y497037D03*
G01X2730367Y292582D03*
G01X2748046Y-341989D03*
G01X1826337Y962382D03*
G01X-7291Y780597D03*
G01X293538Y515098D03*
G01X-716245Y1099730D03*
G01X-96821Y97070D03*
G01X-158993Y-103695D03*
G01X-466295Y-112456D03*
G01X-93899Y-371282D03*
G01X376251Y1784096D03*
G01X175248Y1785021D03*
G01X1940288Y239121D03*
G01X-135390Y390505D03*
G01X-37347Y1785021D03*
G01X-707289Y583735D03*
G01X-360991Y697662D03*
G01X1036107Y214306D03*
G01X29064Y-76164D03*
G01X1090975Y395416D03*
G01X-511037Y1274927D03*
G01X2418320Y276192D03*
G01X583571Y715355D03*
G01X586627Y639155D03*
G01X750110Y704006D03*
G01X1982253Y621049D03*
G01X2764950Y107358D03*
G01X2120960Y-521381D03*
G01X174460Y-533946D03*
G01X2379585Y-562715D03*
G01X2379585Y-492715D03*
G01X2379585Y-422715D03*
G01X2379585Y977288D03*
G01X2379585Y1677289D03*
G01X2378087Y1766754D03*
G01X2479585Y-562715D03*
G01X2479585Y-492715D03*
G01X2479585Y-422715D03*
G01X2479585Y977288D03*
G01X2479585Y1677289D03*
G01X2484077Y1766005D03*
G01X2160300Y-587246D03*
G01X2158224Y-444118D03*
G01X815699Y-577514D03*
G01X814886Y-482674D03*
G01X656875Y-579385D03*
G01X656062Y-484545D03*
G01X373774Y-578262D03*
G01X372962Y-483422D03*
G01X-86769Y-538087D03*
G01X-16769Y-538087D03*
G01X53231Y-538087D03*
G01X2790211Y1353304D03*
G01X2790211Y1423304D03*
G01X2790211Y1493304D03*
G01X2790211Y1563304D03*
G01X2860211Y1143304D03*
G01X2860211Y1563304D03*
G01X2930212Y1143304D03*
G01X2930212Y1563304D03*
G01X3140212Y1143304D03*
G01X3140212Y1563304D03*
G01X3210212Y1143304D03*
G01X3210212Y1493304D03*
G01X3210212Y1563304D03*
G01X2788044Y-181179D03*
G01X2788044Y-111179D03*
G01X2788044Y-41179D03*
G01X2788044Y28821D03*
G01X2788044Y168822D03*
G01X2858629Y-250594D03*
G01X2858044Y98821D03*
G01X2858044Y168822D03*
G01X2928044Y168822D03*
G01X2998044Y168822D03*
G01X3068044Y168822D03*
G01X3138045Y168822D03*
G01X3208045Y-251179D03*
G01X3208045Y98821D03*
G01X3208045Y168822D03*
G01X2790196Y578813D03*
G01X2790196Y648813D03*
G01X2790196Y718813D03*
G01X2790196Y788814D03*
G01X2790196Y858814D03*
G01X2860196Y438813D03*
G01X2860196Y858814D03*
G01X2930196Y858814D03*
G01X3070196Y858814D03*
G01X3140196Y858814D03*
G01X3210197Y438813D03*
G01X3210197Y788814D03*
G01X3210197Y858814D03*
G01X1112531Y1572525D03*
G01X1115252Y1662995D03*
G01X1115485Y1749892D03*
G01X1764322Y1785021D03*
G01X1020153Y1572074D03*
G01X1022423Y1662995D03*
G01X1020769Y1750256D03*
G01X1680453Y1784970D03*
G01X-153117Y183545D03*
G01X2053422Y-16489D03*
G01X1864824Y175751D03*
G01X1950617Y63839D03*
G01X2040634Y-270463D03*
G01X2110150Y1275737D03*
G01X-575862Y-505920D03*
G01X-573141Y-415450D03*
G01X-651834Y-264299D03*
G01X-655680Y-369408D03*
G01X-658401Y-459878D03*
G01X-479554Y-510696D03*
G01X-372719Y-512085D03*
G01X-426622Y-320962D03*
G01X-409673Y-223715D03*
G01X-525544Y-225409D03*
G01X-469950Y142866D03*
G01X-549271Y90496D03*
G01X84164Y1060626D03*
G01X255222Y1251573D03*
G01X410792Y1087619D03*
G01X255222Y1060626D03*
G01X255222Y922956D03*
G01X331061Y1130250D03*
G01X255222Y1138759D03*
G01X340568Y1060626D03*
G01X-713555Y276161D03*
G01X292739Y1663443D03*
G01X26517Y1540909D03*
G01X26517Y1620302D03*
G01X26517Y1457845D03*
G01X247602Y1538637D03*
G01X-8623Y1075519D03*
G01X-101267Y1077443D03*
G01X249552Y76504D03*
G01X313016Y79610D03*
G01X2113017Y-120390D03*
G01X1217425Y1277581D03*
G01X2786937Y-577650D03*
G01X-488801Y1510082D03*
G01X-273003Y1609465D03*
G01X1241456Y894350D03*
G01X1298506Y1198613D03*
G01X2146982Y989292D03*
G01X2123883Y885735D03*
G01X2123883Y785735D03*
G01X2123883Y685735D03*
G01X2120701Y564287D03*
G01X2123229Y28202D03*
G01X-683463Y1258957D03*
G01X304116Y-191873D03*
G01X303946Y-278478D03*
G01X427255Y-191873D03*
G01X427584Y-280350D03*
G01X22902Y-230293D03*
G01X104655Y-231791D03*
G01X2383550Y1567682D03*
G01X2483219Y1564948D03*
G01X2384796Y1474285D03*
G01X2484796Y1474285D03*
G01X2384796Y1374285D03*
G01X2484796Y1374285D03*
G01X2384796Y1281286D03*
G01X2484796Y1281286D03*
G01X2486245Y1164485D03*
G01X2384112Y1162533D03*
G01X2380017Y863367D03*
G01X2479686Y860633D03*
G01X2381264Y769970D03*
G01X2481264Y769970D03*
G01X2381264Y669970D03*
G01X2481264Y669970D03*
G01X2381264Y569970D03*
G01X2481264Y569970D03*
G01X2483087Y477368D03*
G01X2383166Y476526D03*
G01X2376087Y175546D03*
G01X2464143Y168727D03*
G01X2377333Y82149D03*
G01X2477333Y82149D03*
G01X2377333Y-17851D03*
G01X2477333Y-17851D03*
G01X2377333Y-117851D03*
G01X2477333Y-117851D03*
G01X2478782Y-219611D03*
G01X2377398Y-220620D03*
G01X586905Y1595584D03*
G01X704927Y1594576D03*
G01X817616Y1593589D03*
G01X592628Y1508646D03*
G01X708967Y1508646D03*
G01X809756Y1508646D03*
G01X590199Y1333335D03*
G01X908567Y1591636D03*
G01X903585Y1508646D03*
G01X1716627Y280918D03*
G01X1937571Y141081D03*
G01X2124650Y-49825D03*
G01X1027286Y-484746D03*
G01X1028099Y-579586D03*
G01X1186924Y-577715D03*
G01X1186111Y-482875D03*
G01X1400862Y-480254D03*
G01X1401675Y-575095D03*
G01X1560499Y-573223D03*
G01X1559687Y-478383D03*
G01X1751230Y-481752D03*
G01X1752043Y-576592D03*
G01X1910867Y-574720D03*
G01X1910054Y-479880D03*
G01X671428Y-180187D03*
G01X671258Y-266792D03*
G01X794566Y-180187D03*
G01X794896Y-268663D03*
G01X1040886Y-179064D03*
G01X1040716Y-265669D03*
G01X1164025Y-179064D03*
G01X1164354Y-267540D03*
G01X1403606Y-176818D03*
G01X1403436Y-263423D03*
G01X1526745Y-176818D03*
G01X1527074Y-265294D03*
G01X1759589Y-168957D03*
G01X1759419Y-255562D03*
G01X1882728Y-168957D03*
G01X1883057Y-257433D03*
G04 Via End*

G04 Track Start*
G54D11*
G01X-589754Y800846D02*
G01X-594698Y805790D01*
G01X-650736Y1082675D02*
G01X-576569Y1082675D01*
G01X1206747Y483838D02*
G01X1206747Y316308D01*
G01X1203154Y303739D02*
G01X1203154Y90980D01*
G01X1497201Y930650D02*
G01X1497201Y1078096D01*
G01X1975527Y1108537D02*
G01X2072287Y1108537D01*
G01X2186636Y1222886D01*
G01X2790730Y1222886D01*
G01X1819522Y547459D02*
G01X1819522Y548922D01*
G01X1765037Y712237D02*
G01X1747237Y730037D01*
G01X1652564Y730037D01*
G01X1497201Y1078096D02*
G01X1513800Y1094696D01*
G01X1968885Y1101896D02*
G01X1975527Y1108537D01*
G01X1944411Y1101896D02*
G01X1968885Y1101896D01*
G01X1852054Y722688D02*
G01X1826337Y748405D01*
G01X1826337Y962382D01*
G01X1853662Y1192293D02*
G01X1853662Y1056198D01*
G01X255152Y625000D02*
G01X180230Y550078D01*
G01X180230Y444122D01*
G01X255152Y369200D01*
G01X294606Y369200D01*
G01X426658Y237148D01*
G01X588759Y237148D01*
G01X-358537Y706066D02*
G01X-535921Y706066D01*
G01X-536591Y706735D01*
G01X255152Y668938D02*
G01X255152Y625000D01*
G01X313622Y621243D02*
G01X313622Y724662D01*
G01X645028Y145004D02*
G01X722459Y67573D01*
G01X681612Y853182D02*
G01X645028Y816598D01*
G01X-10343Y515553D02*
G01X-135390Y390505D01*
G01X-10343Y770920D02*
G01X-10343Y515553D01*
G01X293538Y515098D02*
G01X293538Y601160D01*
G01X313622Y621243D01*
G01X963153Y133125D02*
G01X997362Y98915D01*
G01X997362Y50534D01*
G01X722459Y67573D02*
G01X771572Y67573D01*
G01X837125Y133125D01*
G01X963153Y133125D01*
G01X873997Y10661D02*
G01X934241Y70905D01*
G01X-559340Y386340D02*
G01X-559340Y395377D01*
G01X-401702Y904187D02*
G01X-719070Y904187D01*
G01X-737031Y922147D01*
G01X-737031Y1083943D01*
G01X-715723Y1105251D01*
G01X645028Y816598D02*
G01X645028Y494389D01*
G01X643256Y492618D01*
G01X643256Y444237D01*
G01X645028Y442466D01*
G01X645028Y145004D01*
G01X62574Y474141D02*
G01X62574Y412915D01*
G01X231565Y243924D01*
G01X-774645Y651091D02*
G01X-707289Y583735D01*
G01X-774645Y1737536D02*
G01X-774645Y651091D01*
G01X-775690Y1738581D02*
G01X-774645Y1737536D01*
G01X-37347Y1785021D02*
G01X-729251Y1785021D01*
G01X-775690Y1738581D01*
G01X-532217Y1073539D02*
G01X-532217Y1253747D01*
G01X-511037Y1274927D01*
G01X1246909Y34811D02*
G01X1264791Y52692D01*
G01X1332750Y52692D01*
G01X1090975Y395416D02*
G01X1090975Y336501D01*
G01X1119088Y308387D01*
G01X1034874Y579020D02*
G01X816778Y579020D01*
G01X800431Y562674D01*
G01X800431Y429553D01*
G01X816778Y413207D01*
G01X1085135Y477176D02*
G01X1085135Y528759D01*
G01X1034874Y579020D01*
G01X816778Y413207D02*
G01X919796Y413207D01*
G01X1131580Y201423D01*
G01X1131580Y70461D01*
G01X1167230Y34811D01*
G01X1246909Y34811D01*
G01X861745Y1204746D02*
G01X1033560Y1376561D01*
G01X1033560Y1506264D01*
G01X861746Y1133998D02*
G01X861745Y1204746D01*
G01X1033560Y1506264D02*
G01X1099254Y1571958D01*
G01X1413604Y264279D02*
G01X1357518Y320365D01*
G01X1357518Y522676D01*
G01X1318328Y561867D01*
G01X1273233Y561867D01*
G01X1870544Y496437D02*
G01X1819522Y547459D01*
G01X1436064Y365346D02*
G01X1436064Y371602D01*
G01X1395887Y411778D01*
G01X1395887Y579833D01*
G01X1352090Y623630D01*
G01X1244784Y623630D01*
G01X1243786Y624628D01*
G01X853263Y262117D02*
G01X853263Y236622D01*
G01X750913Y134272D01*
G01X692609Y904420D02*
G01X692609Y866258D01*
G01X1472505Y549978D02*
G01X1472505Y501850D01*
G01X1652564Y730037D02*
G01X1472505Y549978D01*
G01X-98900Y1205080D02*
G01X-105692Y1211872D01*
G01X-200699Y1211872D01*
G01X-559340Y395377D02*
G01X-302591Y652126D01*
G01X-302591Y805076D01*
G01X-401702Y904187D01*
G01X-200699Y1211872D02*
G01X-258885Y1153686D01*
G01X-258885Y393510D01*
G01X123963Y10661D01*
G01X873997Y10661D01*
G01X1116302Y-62602D02*
G01X1116302Y95787D01*
G01X1115360Y96730D01*
G01X2804288Y468366D02*
G01X2804288Y496033D01*
G01X2749650Y413728D02*
G01X2804288Y468366D01*
G01X2249857Y413728D02*
G01X2250246Y413338D01*
G01X2730367Y292582D02*
G01X2658377Y364572D01*
G01X690168Y649298D02*
G01X690168Y879743D01*
G01X718183Y621282D02*
G01X690168Y649298D01*
G01X1234382Y621282D02*
G01X718183Y621282D01*
G01X1727776Y460837D02*
G01X1755262Y488324D01*
G01X1529031Y460837D02*
G01X1727776Y460837D01*
G01X1512688Y444494D02*
G01X1529031Y460837D01*
G01X1512688Y174881D02*
G01X1512688Y444494D01*
G01X1584951Y102618D02*
G01X1512688Y174881D01*
G01X1806705Y102618D02*
G01X1584951Y102618D01*
G01X2239302Y-329979D02*
G01X1806705Y102618D01*
G01X2733686Y-329979D02*
G01X2239302Y-329979D01*
G01X2745664Y-341958D02*
G01X2733686Y-329979D01*
G01X870664Y-76164D02*
G01X29064Y-76164D01*
G01X997362Y50534D02*
G01X870664Y-76164D01*
G01X1853662Y1056198D02*
G01X1865141Y1056198D01*
G01X1955516Y965824D01*
G01X2685981Y1050137D02*
G01X2732708Y1003410D01*
G01X2018514Y1050137D02*
G01X2685981Y1050137D01*
G01X1955134Y71642D02*
G01X1955134Y64655D01*
G01X1992067Y108576D02*
G01X1991568Y108077D01*
G01X1955134Y71642D01*
G01X1986577Y108077D02*
G01X1991568Y108077D01*
G01X2051959Y108077D01*
G01X313622Y724662D02*
G01X316195Y727235D01*
G01X430422Y727235D01*
G01X372022Y668835D02*
G01X452066Y588791D01*
G01X452066Y295548D01*
G01X1859984Y709934D02*
G01X1859984Y624588D01*
G01X2070230Y414342D01*
G01X2070230Y413728D02*
G01X2249857Y413728D01*
G01X2749650Y413728D01*
G01X2658377Y364572D02*
G01X2038330Y364572D01*
G01X1906465Y496437D01*
G01X1870544Y496437D01*
G01X1970024Y856323D02*
G01X2005945Y856323D01*
G01X2138913Y989292D01*
G01X2146982Y989292D01*
G01X2070872Y239121D02*
G01X2073635Y241884D01*
G01X1940288Y239121D02*
G01X2070872Y239121D01*
G01X1854938Y239716D02*
G01X1986577Y108077D01*
G01X1812595Y239716D02*
G01X1854938Y239716D01*
G04 Track End*

M02*

