G04 Layer: DrillDrawingLayer*
G04 EasyEDA Pro v2.2.44.9, 2025-11-29 07:34:24*
G04 Gerber Generator version 0.3*
G04 Scale: 100 percent, Rotated: No, Reflected: No*
G04 Dimensions in millimeters*
G04 Leading zeros omitted, absolute positions, 4 integers and 5 decimals*
G04 Generated by one-click*
%FSLAX45Y45*%
%MOMM*%
%AMIconRect*4,1,4,0.28,-0.28,-0.28,-0.28,-0.28,0.28,0.28,0.28,0.28,-0.28,0*4,0,4,0.233333,-0.233333,0.233333,0.233333,-0.233333,0.233333,-0.233333,-0.233333,0.233333,-0.233333,0*%
%ADD10IconRect*%
%ADD11C,0.616X0.522667*%
G75*


G04 Drill Drawing Start*
G54D10*
G01X3026870Y631422D03*
G01X3026870Y1352907D03*
G01X3026870Y-63697D03*
G54D11*
G01X-716245Y1099730D03*
G01X-713555Y276161D03*
G01X-707289Y583735D03*
G01X-683463Y1258957D03*
G01X-658401Y-459878D03*
G01X-655680Y-369408D03*
G01X-651834Y-264299D03*
G01X-575862Y-505920D03*
G01X-573141Y-415450D03*
G01X-549271Y90496D03*
G01X-525544Y-225409D03*
G01X-511037Y1274927D03*
G01X-488801Y1510082D03*
G01X-479554Y-510696D03*
G01X-469950Y142866D03*
G01X-466295Y-112456D03*
G01X-426622Y-320962D03*
G01X-409673Y-223715D03*
G01X-372719Y-512085D03*
G01X-360991Y697662D03*
G01X-273003Y1609465D03*
G01X-195503Y825661D03*
G01X-185791Y634218D03*
G01X-158993Y-103695D03*
G01X-153117Y183545D03*
G01X-135390Y390505D03*
G01X-106082Y1208951D03*
G01X-101267Y1077443D03*
G01X-96821Y97070D03*
G01X-93899Y-371282D03*
G01X-86769Y-538087D03*
G01X-37347Y1785021D03*
G01X-16769Y-538087D03*
G01X-8623Y1075519D03*
G01X-7291Y780597D03*
G01X22902Y-230293D03*
G01X26517Y1540909D03*
G01X26517Y1457845D03*
G01X26517Y1620302D03*
G01X29064Y-76164D03*
G01X53231Y-538087D03*
G01X62574Y474141D03*
G01X84164Y1060626D03*
G01X84365Y1785021D03*
G01X104655Y-231791D03*
G01X174460Y-533946D03*
G01X175248Y1785021D03*
G01X247602Y1538637D03*
G01X249552Y76504D03*
G01X255222Y922956D03*
G01X255222Y1060626D03*
G01X255222Y1138759D03*
G01X255222Y1251573D03*
G01X255222Y669008D03*
G01X292739Y1663443D03*
G01X293538Y515098D03*
G01X303946Y-278478D03*
G01X304116Y-191873D03*
G01X313016Y79610D03*
G01X331061Y1130250D03*
G01X340568Y1060626D03*
G01X372022Y668835D03*
G01X372962Y-483422D03*
G01X373774Y-578262D03*
G01X376251Y1784096D03*
G01X410792Y1087619D03*
G01X427255Y-191873D03*
G01X427584Y-280350D03*
G01X430422Y727235D03*
G01X452066Y295548D03*
G01X583571Y715355D03*
G01X586627Y237614D03*
G01X586627Y639155D03*
G01X586905Y1595584D03*
G01X590199Y1333335D03*
G01X592628Y1508646D03*
G01X656062Y-484545D03*
G01X656875Y-579385D03*
G01X671258Y-266792D03*
G01X671428Y-180187D03*
G01X701656Y468428D03*
G01X704927Y1594576D03*
G01X708967Y1508646D03*
G01X731246Y330599D03*
G01X748462Y137818D03*
G01X750110Y704006D03*
G01X794566Y-180187D03*
G01X794896Y-268663D03*
G01X809756Y1508646D03*
G01X814886Y-482674D03*
G01X815699Y-577514D03*
G01X817616Y1593589D03*
G01X839464Y998494D03*
G01X853263Y262117D03*
G01X903585Y1508646D03*
G01X908567Y1591636D03*
G01X929463Y247343D03*
G01X938962Y74725D03*
G01X1020153Y1572074D03*
G01X1020769Y1750256D03*
G01X1022423Y1662995D03*
G01X1027286Y-484746D03*
G01X1028099Y-579586D03*
G01X1036107Y214306D03*
G01X1040716Y-265669D03*
G01X1040886Y-179064D03*
G01X1090975Y395416D03*
G01X1112531Y1572525D03*
G01X1115252Y1662995D03*
G01X1115485Y1749892D03*
G01X1164025Y-179064D03*
G01X1164354Y-267540D03*
G01X1186111Y-482875D03*
G01X1186924Y-577715D03*
G01X1217425Y1277581D03*
G01X1241456Y894350D03*
G01X1298506Y1198613D03*
G01X1400862Y-480254D03*
G01X1401675Y-575095D03*
G01X1403436Y-263423D03*
G01X1403537Y169856D03*
G01X1403606Y-176818D03*
G01X1472505Y501850D03*
G01X1526745Y-176818D03*
G01X1527074Y-265294D03*
G01X1559687Y-478383D03*
G01X1560499Y-573223D03*
G01X1680453Y1784970D03*
G01X1716627Y280918D03*
G01X1751230Y-481752D03*
G01X1752043Y-576592D03*
G01X1758469Y492440D03*
G01X1759419Y-255562D03*
G01X1759589Y-168957D03*
G01X1764322Y1785021D03*
G01X1765037Y712237D03*
G01X1819522Y548922D03*
G01X1826337Y962382D03*
G01X1856389Y722191D03*
G01X1864824Y175751D03*
G01X1882728Y-168957D03*
G01X1883057Y-257433D03*
G01X1910054Y-479880D03*
G01X1910867Y-574720D03*
G01X1937571Y141081D03*
G01X1938426Y1108222D03*
G01X1940288Y239121D03*
G01X1950617Y63839D03*
G01X1982253Y621049D03*
G01X2018514Y1050137D03*
G01X2040634Y-270463D03*
G01X2053422Y-16489D03*
G01X2110150Y1275737D03*
G01X2113017Y-120390D03*
G01X2120701Y564287D03*
G01X2120960Y-521381D03*
G01X2123229Y28202D03*
G01X2123883Y685735D03*
G01X2123883Y785735D03*
G01X2123883Y885735D03*
G01X2124650Y-49825D03*
G01X2146982Y989292D03*
G01X2158224Y-444118D03*
G01X2160300Y-587246D03*
G01X2376087Y175546D03*
G01X2377333Y-117851D03*
G01X2377333Y-17851D03*
G01X2377333Y82149D03*
G01X2377398Y-220620D03*
G01X2378087Y1766754D03*
G01X2379585Y-562715D03*
G01X2379585Y-492715D03*
G01X2379585Y-422715D03*
G01X2379585Y977288D03*
G01X2379585Y1677289D03*
G01X2380017Y863367D03*
G01X2381264Y569970D03*
G01X2381264Y669970D03*
G01X2381264Y769970D03*
G01X2383166Y476526D03*
G01X2383550Y1567682D03*
G01X2384112Y1162533D03*
G01X2384796Y1281286D03*
G01X2384796Y1374285D03*
G01X2384796Y1474285D03*
G01X2418320Y276192D03*
G01X2464143Y168727D03*
G01X2477333Y-117851D03*
G01X2477333Y-17851D03*
G01X2477333Y82149D03*
G01X2478782Y-219611D03*
G01X2479585Y-562715D03*
G01X2479585Y-492715D03*
G01X2479585Y-422715D03*
G01X2479585Y977288D03*
G01X2479585Y1677289D03*
G01X2479686Y860633D03*
G01X2481264Y569970D03*
G01X2481264Y669970D03*
G01X2481264Y769970D03*
G01X2483087Y477368D03*
G01X2483219Y1564948D03*
G01X2484077Y1766005D03*
G01X2484796Y1281286D03*
G01X2484796Y1374285D03*
G01X2484796Y1474285D03*
G01X2486245Y1164485D03*
G01X2730367Y292582D03*
G01X2732708Y1003410D03*
G01X2748046Y-341989D03*
G01X2764950Y107358D03*
G01X2786937Y-577650D03*
G01X2788044Y-181179D03*
G01X2788044Y-111179D03*
G01X2788044Y-41179D03*
G01X2788044Y28821D03*
G01X2788044Y168822D03*
G01X2790196Y578813D03*
G01X2790196Y648813D03*
G01X2790196Y718813D03*
G01X2790196Y788814D03*
G01X2790196Y858814D03*
G01X2790211Y1353304D03*
G01X2790211Y1423304D03*
G01X2790211Y1493304D03*
G01X2790211Y1563304D03*
G01X2790730Y1222886D03*
G01X2804288Y497037D03*
G01X2858044Y98821D03*
G01X2858044Y168822D03*
G01X2858629Y-250594D03*
G01X2860196Y438813D03*
G01X2860196Y858814D03*
G01X2860211Y1143304D03*
G01X2860211Y1563304D03*
G01X2928044Y168822D03*
G01X2930196Y858814D03*
G01X2930212Y1143304D03*
G01X2930212Y1563304D03*
G01X2998044Y168822D03*
G01X3068044Y168822D03*
G01X3070196Y858814D03*
G01X3138045Y168822D03*
G01X3140196Y858814D03*
G01X3140212Y1143304D03*
G01X3140212Y1563304D03*
G01X3208045Y-251179D03*
G01X3208045Y98821D03*
G01X3208045Y168822D03*
G01X3210197Y438813D03*
G01X3210197Y788814D03*
G01X3210197Y858814D03*
G01X3210212Y1143304D03*
G01X3210212Y1493304D03*
G01X3210212Y1563304D03*
G04 Drill Drawing End*

M02*

